<svg version="1.2" xmlns="http://www.w3.org/2000/svg" viewBox="0 0 1375 411" width="1375" height="411">
	<style>
		.s0 { fill: #2a62ad } 
		.s1 { fill: #2d8bc9 } 
		.s2 { fill: #fefefe } 
		.s3 { fill: none;stroke: #2d8bc9;stroke-miterlimit:10;stroke-width: .4 } 
		.s4 { fill: #fefefe;stroke: #231f20;stroke-miterlimit:10;stroke-width: .8 } 
		.s5 { fill: #fefefe;stroke: #231f20;stroke-miterlimit:10;stroke-width: .5 } 
	</style>
	<g id="_Artboards_">
	</g>
	<g id="COLORIDA">
		<g id="&lt;Group&gt;">
			<g id="&lt;Group&gt;">
				<g id="&lt;Group&gt;">
					<g id="&lt;Group&gt;">
					</g>
					<g id="&lt;Group&gt;">
					</g>
					<g id="&lt;Group&gt;">
					</g>
				</g>
				<g id="&lt;Group&gt;">
					<g id="&lt;Group&gt;">
					</g>
					<g id="&lt;Group&gt;">
					</g>
					<g id="&lt;Group&gt;">
					</g>
				</g>
				<g id="&lt;Group&gt;">
					<g id="&lt;Group&gt;">
					</g>
					<g id="&lt;Group&gt;">
					</g>
					<g id="&lt;Group&gt;">
					</g>
				</g>
				<g id="&lt;Group&gt;">
				</g>
				<g id="&lt;Group&gt;">
				</g>
				<g id="&lt;Group&gt;">
				</g>
			</g>
			<g id="&lt;Group&gt;">
				<g id="&lt;Group&gt;">
				</g>
				<g id="&lt;Group&gt;">
					<g id="&lt;Group&gt;">
					</g>
					<g id="&lt;Group&gt;">
					</g>
					<g id="&lt;Group&gt;">
					</g>
					<g id="&lt;Group&gt;">
					</g>
					<g id="&lt;Group&gt;">
					</g>
					<g id="&lt;Group&gt;">
					</g>
					<g id="&lt;Group&gt;">
					</g>
					<g id="&lt;Group&gt;">
					</g>
					<g id="&lt;Group&gt;">
					</g>
					<g id="&lt;Group&gt;">
					</g>
					<g id="&lt;Group&gt;">
					</g>
					<g id="&lt;Group&gt;">
					</g>
					<g id="&lt;Group&gt;">
					</g>
					<g id="&lt;Group&gt;">
					</g>
					<g id="&lt;Group&gt;">
					</g>
					<g id="&lt;Group&gt;">
					</g>
					<g id="&lt;Group&gt;">
					</g>
					<g id="&lt;Group&gt;">
					</g>
					<g id="&lt;Group&gt;">
					</g>
					<g id="&lt;Group&gt;">
					</g>
					<g id="&lt;Group&gt;">
					</g>
					<g id="&lt;Group&gt;">
					</g>
					<g id="&lt;Group&gt;">
					</g>
					<g id="&lt;Group&gt;">
					</g>
					<g id="&lt;Group&gt;">
					</g>
					<g id="&lt;Group&gt;">
					</g>
					<g id="&lt;Group&gt;">
					</g>
					<g id="&lt;Group&gt;">
					</g>
					<g id="&lt;Group&gt;">
					</g>
				</g>
			</g>
		</g>
		<g id="&lt;Group&gt;">
			<g id="&lt;Group&gt;">
			</g>
			<g id="&lt;Group&gt;">
				<g id="&lt;Group&gt;">
				</g>
				<g id="&lt;Group&gt;">
				</g>
				<g id="&lt;Group&gt;">
				</g>
				<g id="&lt;Group&gt;">
				</g>
				<g id="&lt;Group&gt;">
				</g>
				<g id="&lt;Group&gt;">
				</g>
				<g id="&lt;Group&gt;">
				</g>
				<g id="&lt;Group&gt;">
				</g>
				<g id="&lt;Group&gt;">
				</g>
				<g id="&lt;Group&gt;">
				</g>
				<g id="&lt;Group&gt;">
				</g>
				<g id="&lt;Group&gt;">
				</g>
				<g id="&lt;Group&gt;">
				</g>
				<g id="&lt;Group&gt;">
				</g>
				<g id="&lt;Group&gt;">
				</g>
				<g id="&lt;Group&gt;">
				</g>
				<g id="&lt;Group&gt;">
				</g>
				<g id="&lt;Group&gt;">
				</g>
				<g id="&lt;Group&gt;">
				</g>
				<g id="&lt;Group&gt;">
				</g>
				<g id="&lt;Group&gt;">
				</g>
				<g id="&lt;Group&gt;">
				</g>
				<g id="&lt;Group&gt;">
				</g>
				<g id="&lt;Group&gt;">
				</g>
				<g id="&lt;Group&gt;">
				</g>
				<g id="&lt;Group&gt;">
				</g>
				<g id="&lt;Group&gt;">
				</g>
				<g id="&lt;Group&gt;">
				</g>
				<g id="&lt;Group&gt;">
				</g>
			</g>
		</g>
	</g>
	<g id="FUNDO BRANCO">
	</g>
	<g id="PRETA">
		<g id="&lt;Group&gt;">
			<g id="&lt;Group&gt;">
			</g>
			<g id="&lt;Group&gt;">
			</g>
			<g id="&lt;Group&gt;">
			</g>
			<g id="&lt;Group&gt;">
			</g>
			<g id="&lt;Group&gt;">
			</g>
			<g id="&lt;Group&gt;">
			</g>
			<g id="&lt;Group&gt;">
			</g>
			<g id="&lt;Group&gt;">
			</g>
			<g id="&lt;Group&gt;">
			</g>
			<g id="&lt;Group&gt;">
			</g>
			<g id="&lt;Group&gt;">
			</g>
		</g>
	</g>
	<g id="LINHAS">
	</g>
	<g id="AZUL">
		<g id="&lt;Group&gt;">
			<g id="&lt;Group&gt;">
				<g id="&lt;Group&gt;">
					<g id="&lt;Group&gt;">
						<path id="&lt;Path&gt;" class="s0" d="m496.84-92.05h-61.56v-301.39l61.56 44.12z"/>
					</g>
					<g id="&lt;Group&gt;">
						<path id="&lt;Path&gt;" class="s1" d="m435.28-92.05h-61.56v-301.39h61.56z"/>
					</g>
					<g id="&lt;Group&gt;">
						<path id="&lt;Path&gt;" class="s2" d="m424.51-92.05h-50.79v-283.82h50.79z"/>
					</g>
				</g>
				<g id="&lt;Group&gt;">
					<g id="&lt;Group&gt;">
						<path id="&lt;Path&gt;" class="s0" d="m264.96-92.05h-61.56v-354.38l61.56 44.18z"/>
					</g>
					<g id="&lt;Group&gt;">
						<path id="&lt;Path&gt;" class="s1" d="m157.16-98.01l2.19 5.95h-17.5v-37.77c2.56 0.94 4.62 2.98 5.62 5.62z"/>
						<path id="&lt;Path&gt;" class="s1" d="m203.4-446.44v354.38h-8.42l-2.77-5.95-50.36-107.89v-240.54z"/>
					</g>
					<g id="&lt;Group&gt;">
						<path id="&lt;Path&gt;" class="s2" d="m147.47-124.21l9.69 26.2h-15.31v-31.82c2.56 0.94 4.62 2.98 5.62 5.62z"/>
						<path id="&lt;Path&gt;" class="s2" d="m192.63-435.39v337.38h-0.42l-50.36-107.89v-229.49z"/>
					</g>
				</g>
				<g id="&lt;Group&gt;">
					<g id="&lt;Group&gt;">
						<path id="&lt;Path&gt;" class="s0" d="m398.6-92.05h-72.08v-266.25l72.08 51.66z"/>
					</g>
					<g id="&lt;Group&gt;">
						<path id="&lt;Path&gt;" class="s1" d="m326.52-92.05h-61.56v-266.25h61.56z"/>
					</g>
					<g id="&lt;Group&gt;">
						<path id="&lt;Path&gt;" class="s2" d="m314.72-92.05h-50.79v-250.47h50.79z"/>
					</g>
				</g>
				<g id="&lt;Group&gt;">
					<path id="&lt;Path&gt;" class="s3" d="m264.96-403.18l-61.56 36.81"/>
					<path id="&lt;Path&gt;" class="s1" d="m264.91-398.41l-61.51 36.78"/>
					<path id="&lt;Path&gt;" class="s1" d="m264.86-393.64l-61.46 36.75"/>
					<path id="&lt;Path&gt;" class="s1" d="m264.81-388.87l-61.41 36.72"/>
					<path id="&lt;Path&gt;" class="s1" d="m264.76-384.1l-61.36 36.69"/>
					<path id="&lt;Path&gt;" class="s1" d="m264.72-379.33l-61.32 36.66"/>
					<path id="&lt;Path&gt;" class="s1" d="m264.67-374.56l-61.27 36.63"/>
					<path id="&lt;Path&gt;" class="s1" d="m264.62-369.8l-61.22 36.61"/>
					<path id="&lt;Path&gt;" class="s1" d="m264.57-365.03l-61.17 36.58"/>
					<path id="&lt;Path&gt;" class="s1" d="m264.52-360.26l-61.12 36.55"/>
					<path id="&lt;Path&gt;" class="s1" d="m264.47-355.49l-61.07 36.52"/>
					<path id="&lt;Path&gt;" class="s1" d="m264.42-350.72l-61.02 36.49"/>
					<path id="&lt;Path&gt;" class="s1" d="m264.37-345.95l-60.97 36.46"/>
					<path id="&lt;Path&gt;" class="s1" d="m264.32-341.18l-60.92 36.43"/>
					<path id="&lt;Path&gt;" class="s1" d="m264.28-336.41l-60.88 36.4"/>
					<path id="&lt;Path&gt;" class="s1" d="m264.23-331.64l-60.83 36.37"/>
					<path id="&lt;Path&gt;" class="s1" d="m264.18-326.87l-60.78 36.34"/>
					<path id="&lt;Path&gt;" class="s1" d="m264.13-322.1l-60.73 36.31"/>
					<path id="&lt;Path&gt;" class="s1" d="m264.08-317.33l-60.68 36.28"/>
					<path id="&lt;Path&gt;" class="s1" d="m264.03-312.56l-60.63 36.25"/>
					<path id="&lt;Path&gt;" class="s1" d="m263.98-307.79l-60.58 36.22"/>
					<path id="&lt;Path&gt;" class="s1" d="m263.93-303.02l-60.53 36.19"/>
				</g>
				<g id="&lt;Group&gt;">
					<path id="&lt;Path&gt;" class="s3" d="m496.84-324.37l-61.56 36.81"/>
					<path id="&lt;Path&gt;" class="s1" d="m496.79-319.6l-61.51 36.78"/>
					<path id="&lt;Path&gt;" class="s1" d="m496.74-314.83l-61.46 36.75"/>
					<path id="&lt;Path&gt;" class="s1" d="m496.69-310.06l-61.41 36.72"/>
					<path id="&lt;Path&gt;" class="s1" d="m496.64-305.29l-61.36 36.69"/>
					<path id="&lt;Path&gt;" class="s1" d="m496.6-300.52l-61.32 36.66"/>
					<path id="&lt;Path&gt;" class="s1" d="m496.55-295.75l-61.27 36.63"/>
					<path id="&lt;Path&gt;" class="s1" d="m496.5-290.98l-61.22 36.6"/>
					<path id="&lt;Path&gt;" class="s1" d="m496.45-286.21l-61.17 36.57"/>
					<path id="&lt;Path&gt;" class="s1" d="m496.4-281.44l-61.12 36.54"/>
					<path id="&lt;Path&gt;" class="s1" d="m496.35-276.67l-61.07 36.51"/>
					<path id="&lt;Path&gt;" class="s1" d="m496.3-271.9l-61.02 36.48"/>
					<path id="&lt;Path&gt;" class="s1" d="m496.25-267.14l-60.97 36.46"/>
					<path id="&lt;Path&gt;" class="s1" d="m496.2-262.37l-60.92 36.43"/>
					<path id="&lt;Path&gt;" class="s1" d="m496.16-257.6l-60.88 36.4"/>
					<path id="&lt;Path&gt;" class="s1" d="m496.11-252.83l-60.83 36.37"/>
					<path id="&lt;Path&gt;" class="s1" d="m496.06-248.06l-60.78 36.34"/>
					<path id="&lt;Path&gt;" class="s1" d="m496.01-243.29l-60.73 36.31"/>
					<path id="&lt;Path&gt;" class="s1" d="m495.96-238.52l-60.68 36.28"/>
					<path id="&lt;Path&gt;" class="s1" d="m495.91-233.75l-60.63 36.25"/>
					<path id="&lt;Path&gt;" class="s1" d="m495.86-228.98l-60.58 36.23"/>
					<path id="&lt;Path&gt;" class="s1" d="m495.81-224.21l-60.53 36.2"/>
				</g>
				<g id="&lt;Group&gt;">
					<path id="&lt;Path&gt;" class="s3" d="m399.04-297.91l-72.52 43.36"/>
					<path id="&lt;Path&gt;" class="s1" d="m398.98-292.29l-72.46 43.32"/>
					<path id="&lt;Path&gt;" class="s1" d="m398.93-286.68l-72.41 43.3"/>
					<path id="&lt;Path&gt;" class="s1" d="m398.87-281.06l-72.35 43.26"/>
					<path id="&lt;Path&gt;" class="s1" d="m398.81-275.44l-72.29 43.23"/>
					<path id="&lt;Path&gt;" class="s1" d="m398.75-269.82l-72.23 43.19"/>
					<path id="&lt;Path&gt;" class="s1" d="m398.7-264.2l-72.18 43.15"/>
					<path id="&lt;Path&gt;" class="s1" d="m398.64-258.58l-72.12 43.12"/>
					<path id="&lt;Path&gt;" class="s1" d="m398.58-252.96l-72.06 43.08"/>
					<path id="&lt;Path&gt;" class="s1" d="m398.52-247.34l-72 43.05"/>
					<path id="&lt;Path&gt;" class="s1" d="m398.47-241.73l-71.95 43.02"/>
					<path id="&lt;Path&gt;" class="s1" d="m398.41-236.11l-71.89 42.99"/>
					<path id="&lt;Path&gt;" class="s1" d="m398.35-230.49l-71.83 42.95"/>
					<path id="&lt;Path&gt;" class="s1" d="m398.29-224.87l-71.77 42.92"/>
					<path id="&lt;Path&gt;" class="s1" d="m398.24-219.25l-71.72 42.88"/>
					<path id="&lt;Path&gt;" class="s1" d="m398.18-213.63l-71.66 42.84"/>
					<path id="&lt;Path&gt;" class="s1" d="m398.12-208.01l-71.6 42.81"/>
					<path id="&lt;Path&gt;" class="s1" d="m398.06-202.39l-71.54 42.77"/>
					<path id="&lt;Path&gt;" class="s1" d="m398.01-196.78l-71.49 42.75"/>
					<path id="&lt;Path&gt;" class="s1" d="m397.95-191.16l-71.43 42.71"/>
					<path id="&lt;Path&gt;" class="s1" d="m397.89-185.54l-71.37 42.68"/>
					<path id="&lt;Path&gt;" class="s1" d="m397.83-179.92l-71.31 42.64"/>
				</g>
				<path id="&lt;Path&gt;" class="s0" d="m258.33-92.06h-63.35l-2.77-5.95-50.36-107.89-0.76-1.62-36.15 77.43 33.54-0.34c1.18 0 2.32 0.21 3.37 0.6 2.56 0.94 4.62 2.98 5.62 5.62l9.69 26.2 2.19 5.95h-135.5l58.83-111.8 2.25-68.13c0.08-2.4 2.04-4.31 4.44-4.31h31.43l20.29-38.58 0.76 1.43 50.78 96.53 10.77 20.45z"/>
			</g>
			<g id="&lt;Group&gt;">
				<g id="&lt;Group&gt;">
					<path id="&lt;Compound Path&gt;" fill-rule="evenodd" class="s0" d="m628.88-179.06v-7.59c17.61-2.16 19.78-4.87 15.99-15.17-3.52-10.57-8.94-24.11-14.63-41.18h-58.52c-4.33 12.19-8.39 22.76-12.19 33.87-5.96 17.61-2.17 19.77 20.05 22.48v7.59h-62.58v-7.59c17.07-2.16 21.4-4.06 30.88-28.44l56.08-142.23 8.67-1.63c17.07 46.33 35.76 97.53 52.83 144.4 8.67 23.57 11.11 25.74 30.34 27.9v7.59zm-27.09-144.4c-8.67 23.3-17.88 47.95-26.01 69.36h50.66z"/>
					<path id="&lt;Compound Path&gt;" class="s0" d="m827.45-312.62c-2.44-8.67-5.69-17.61-8.67-22.49-4.33-7.31-7.04-9.21-21.94-9.21h-27.09v131.93c0 21.14 2.17 24.12 27.9 25.74v7.59h-78.83v-7.59c25.19-1.62 27.36-4.33 27.36-25.74v-131.93h-24.65c-14.9 0-19.24 1.63-23.84 9.76-3.25 5.41-5.42 11.91-8.94 21.94h-8.13c1.62-16.53 3.25-33.59 4.06-48.77h6.23c4.07 6.51 7.05 6.23 14.63 6.23h107.28c7.59 0 9.76-1.08 13.82-6.23h6.5c0 12.74 1.09 32.24 2.44 47.96z"/>
					<path id="&lt;Compound Path&gt;" fill-rule="evenodd" class="s0" d="m934.18-179.06v-7.59c17.61-2.16 19.78-4.87 15.98-15.17-3.52-10.57-8.94-24.11-14.62-41.18h-58.52c-4.34 12.19-8.4 22.76-12.19 33.87-5.96 17.61-2.17 19.77 20.05 22.48v7.59h-62.58v-7.59c17.06-2.16 21.4-4.06 30.88-28.44l56.08-142.23 8.67-1.63c17.06 46.33 35.76 97.53 52.82 144.4 8.67 23.57 11.11 25.74 30.34 27.9v7.59zm-27.08-144.4c-8.67 23.3-17.88 47.95-26.01 69.36h50.66z"/>
					<path id="&lt;Compound Path&gt;" class="s0" d="m1147.91-224.03c-1.62 8.39-9.75 36.57-12.46 44.97h-125.97v-7.59c24.65-2.44 26.82-3.79 26.82-26.82v-107.55c0-23.03-2.71-24.38-24.38-26.55v-7.59h72.6v7.59c-21.67 2.17-24.65 3.25-24.65 26.55v110.26c0 16.53 2.16 20.32 17.61 20.59 0.27 0 19.77 0.27 21.4 0.27 13.82 0 17.88-1.62 24.11-8.4 6.77-7.04 12.46-17.88 16.53-27.9z"/>
					<path id="&lt;Compound Path&gt;" fill-rule="evenodd" class="s0" d="m1273.87-179.06v-7.59c17.61-2.16 19.78-4.87 15.99-15.17-3.52-10.57-8.94-24.11-14.63-41.18h-58.52c-4.33 12.19-8.4 22.76-12.19 33.87-5.96 17.61-2.17 19.77 20.05 22.48v7.59h-62.58v-7.59c17.07-2.16 21.4-4.06 30.88-28.44l56.08-142.23 8.67-1.63c17.07 46.33 35.76 97.53 52.83 144.4 8.67 23.57 11.1 25.74 30.34 27.9v7.59zm-27.09-144.4c-8.67 23.3-17.88 47.95-26.01 69.36h50.66z"/>
				</g>
				<g id="&lt;Group&gt;">
					<g id="&lt;Group&gt;">
						<path id="&lt;Compound Path&gt;" class="s0" d="m535.72-150.48q-2.51-1.53-5.62-1.53-3.12 0-5.31 1.94-2.2 1.94-2.2 5.31v0.32q0 4.01 4.46 7.31 1.9 1.4 4.29 2.77 2.38 1.37 4.77 2.92 2.38 1.56 4.32 3.31 1.94 1.75 3.18 4.29 1.24 2.55 1.24 5.6v0.63q0 6.05-4.1 9.6-4.1 3.57-10.14 3.57-7.95 0-12.34-6.55v-3.44q1.65 3.63 4.86 5.88 3.21 2.26 7.98 2.26 4.77 0 8.27-3.05 3.5-3.05 3.5-8.14v-0.38q0-3.18-1.66-5.82-1.65-2.64-4.13-4.32-2.48-1.69-5.4-3.53-2.93-1.85-5.41-3.44-2.48-1.58-4.13-4-1.65-2.42-1.65-5.28v-0.44q0-4.45 2.86-6.81 2.86-2.35 7.06-2.35 5.85 0 9.28 4.32v3.25q-1.46-2.67-3.98-4.2z"/>
						<path id="&lt;Compound Path&gt;" fill-rule="evenodd" class="s0" d="m530.61-103.82c-5.5 0-9.82-2.3-12.85-6.83l-0.11-0.16v-6.47l1.19 2.59c1.05 2.31 2.61 4.2 4.65 5.64 2.02 1.42 4.59 2.14 7.62 2.14 3.01 0 5.66-0.98 7.86-2.9 2.21-1.93 3.29-4.44 3.29-7.67v-0.38q-0.01-3-1.56-5.49-1.59-2.53-3.96-4.14-2.47-1.68-5.38-3.52-2.93-1.84-5.41-3.43-2.58-1.66-4.31-4.18-1.76-2.57-1.76-5.63v-0.44c0-3.15 1.04-5.6 3.08-7.29 2.02-1.65 4.52-2.49 7.46-2.49 4.08 0 7.36 1.53 9.76 4.56l0.14 0.17v5.88l-1.17-2.13q-1.38-2.52-3.75-3.96-2.36-1.43-5.3-1.44c-1.94 0-3.54 0.59-4.9 1.79-1.34 1.18-1.99 2.76-1.99 4.84v0.32c0 2.45 1.42 4.75 4.2 6.81q1.85 1.36 4.24 2.73 2.36 1.36 4.79 2.94 2.43 1.59 4.4 3.37 2.03 1.83 3.33 4.48 1.3 2.68 1.3 5.87v0.63c0 4.2-1.45 7.59-4.32 10.07-2.83 2.47-6.38 3.72-10.54 3.72zm-11.72-7.36c2.82 4.11 6.65 6.12 11.72 6.12 3.85 0 7.13-1.15 9.73-3.41 2.62-2.28 3.89-5.26 3.89-9.14v-0.63q0-2.91-1.18-5.33-1.19-2.43-3.04-4.1-1.9-1.71-4.24-3.25-2.4-1.56-4.74-2.9-2.44-1.4-4.35-2.81c-3.12-2.32-4.71-4.94-4.71-7.81v-0.32q0.01-3.64 2.41-5.77 2.37-2.09 5.72-2.1 3.28 0.01 5.95 1.62 1.75 1.07 3.03 2.67v-0.97c-2.17-2.64-5.01-3.92-8.66-3.92-2.64 0-4.88 0.74-6.67 2.21-1.77 1.46-2.63 3.53-2.63 6.33v0.44q0 2.67 1.54 4.93 1.59 2.31 3.96 3.83 2.47 1.59 5.4 3.43 2.93 1.85 5.42 3.54 2.58 1.76 4.31 4.51 1.74 2.79 1.75 6.15v0.38c0 3.56-1.25 6.46-3.71 8.61-2.44 2.12-5.36 3.2-8.68 3.2-3.29 0-6.1-0.8-8.33-2.37q-2.34-1.64-3.89-3.99z"/>
					</g>
					<g id="&lt;Group&gt;">
						<path id="&lt;Compound Path&gt;" fill-rule="evenodd" class="s0" d="m565.51-104.57h-0.57q-6.04 0-10.52-4.55-4.48-4.54-4.48-10.58-0.01-6.05 4.45-10.47 4.45-4.41 11-4.41 6.54 0 11.25 5.21l-19.97 19.71q4.14 3.31 7.95 3.31 3.82 0 6.84-1.75 3.02-1.75 4.99-4.67v3.24q-4.52 4.96-10.94 4.96zm-0.67-28.23q-5.05 0-8.96 3.91-3.91 3.91-3.91 8.99 0 5.09 3.37 8.91l18.5-18.38q-3.94-3.43-9-3.43z"/>
						<path id="&lt;Compound Path&gt;" fill-rule="evenodd" class="s0" d="m565.51-103.95h-0.57c-4.18 0-7.87-1.59-10.96-4.73-3.1-3.14-4.66-6.85-4.66-11.02 0-4.18 1.55-7.85 4.63-10.91 3.07-3.05 6.92-4.59 11.44-4.59 4.52 0 8.46 1.82 11.71 5.41l0.4 0.44-19.89 19.63q3.67 2.74 7.01 2.75 3.65-0.01 6.53-1.67 2.89-1.68 4.78-4.48l1.14-1.68v5.51l-0.16 0.17c-3.12 3.43-6.96 5.17-11.4 5.17zm-0.12-30.01c-4.18 0-7.73 1.42-10.57 4.23-2.83 2.82-4.26 6.19-4.26 10.03 0 3.83 1.44 7.25 4.3 10.15 2.85 2.89 6.24 4.36 10.08 4.36h0.57c4 0 7.47-1.55 10.32-4.58v-1.17q-1.74 2.03-4.06 3.38c-2.1 1.21-4.51 1.83-7.15 1.83-2.67 0-5.48-1.16-8.33-3.45l-0.55-0.43 20.04-19.78c-2.92-3.04-6.42-4.57-10.39-4.57zm-10.08 23.87l-0.44-0.49c-2.33-2.65-3.52-5.78-3.52-9.32 0-3.54 1.38-6.72 4.09-9.43 2.72-2.72 5.88-4.09 9.4-4.09 3.51 0 6.68 1.2 9.41 3.58l0.5 0.44zm9.54-22.09c-3.19 0-6.06 1.25-8.53 3.73-2.48 2.47-3.73 5.35-3.73 8.56 0 3 0.94 5.68 2.79 7.99l17.54-17.43c-2.37-1.89-5.09-2.85-8.07-2.85z"/>
					</g>
					<g id="&lt;Group&gt;">
						<path id="&lt;Compound Path&gt;" class="s0" d="m593.23-132.87q-3.37 0-5.94 2.55-2.58 2.54-2.58 5.91v19.07h-2.03v-28.61h2.03v4.26q1.15-2.16 3.56-3.56 2.42-1.4 5.41-1.4 2.99 0 5.72 2.04v2.54q-2.8-2.8-6.17-2.8z"/>
						<path id="&lt;Compound Path&gt;" fill-rule="evenodd" class="s0" d="m585.33-104.72h-3.27v-29.85h3.27v2.91q1.08-1.22 2.63-2.13 2.57-1.47 5.72-1.48 3.19 0.01 6.09 2.16l0.25 0.19v4.35l-1.06-1.06c-1.76-1.76-3.63-2.62-5.73-2.62-2.09 0-3.9 0.78-5.51 2.37-1.6 1.59-2.39 3.38-2.39 5.47zm-2.03-1.24h0.79v-18.45c0-2.41 0.93-4.55 2.76-6.36 1.83-1.8 3.98-2.72 6.38-2.72q2.99 0 5.55 2.03v-0.84c-3.37-2.37-7.27-2.11-10.19-0.42q-2.26 1.31-3.33 3.32l-1.17 2.2v-6.13h-0.79z"/>
					</g>
					<g id="&lt;Group&gt;">
						<path id="&lt;Compound Path&gt;" class="s0" d="m628.9-133.95h1.85l-14.05 29.44-14.12-29.44h2.23l12.08 25.12z"/>
						<path id="&lt;Compound Path&gt;" fill-rule="evenodd" class="s0" d="m616.7-103.07l-15.1-31.5h3.6l11.69 24.3 11.62-24.3h3.22zm-13.13-30.25l13.13 27.38 13.07-27.38h-0.47l-12.41 25.93-12.47-25.93z"/>
					</g>
					<g id="&lt;Group&gt;">
						<path id="&lt;Compound Path&gt;" class="s0" d="m638-140.88c-1.02 0-1.85-0.77-1.85-1.72 0-0.95 0.83-1.71 1.85-1.71 1.02 0 1.84 0.76 1.84 1.71 0 0.95-0.82 1.72-1.84 1.72zm1.01 6.99v28.55h-2.03v-28.55z"/>
						<path id="&lt;Compound Path&gt;" fill-rule="evenodd" class="s0" d="m639.63-134.51v29.79h-3.27v-29.79zm-2.04 1.24v27.31h0.8v-27.31zm0.4-6.99c-1.37 0-2.47-1.04-2.47-2.34 0-1.29 1.1-2.33 2.47-2.33 1.36 0 2.46 1.04 2.46 2.33 0 1.3-1.1 2.34-2.46 2.34zm0-3.43c-1.02 0-1.23 0.42-1.23 1.09 0 0.68 0.21 1.1 1.23 1.1 1.02 0 1.22-0.42 1.22-1.1 0-0.67-0.2-1.09-1.22-1.09z"/>
					</g>
					<g id="&lt;Group&gt;">
						<path id="&lt;Compound Path&gt;" class="s0" d="m658.85-100.57v-4.19q-5.28-0.89-8.8-5.22-3.53-4.32-3.53-10.01 0-5.69 4.45-10.11 4.45-4.42 10.93-4.42 6.49 0 11.07 4.9v3.24q-1.97-2.93-4.99-4.64-3.02-1.72-6.33-1.72-5.28 0-9.19 3.91-3.91 3.91-3.91 9.32 0 5.4 3.91 9.31 3.91 3.91 9.19 3.91 3.31 0 6.33-1.72 3.02-1.71 4.99-4.7v3.31q-4.45 4.89-11 4.89h-0.57q-0.77 0-0.96-0.06v2.35h0.64q2.03 0 3.46 1.4 1.43 1.4 1.43 3.31v0.25q0 1.91-1.4 3.27-1.4 1.37-3.49 1.37h-2.23v-1.59h2.23q1.46 0 2.41-0.92 0.96-0.92 0.96-2.26 0-1.33-0.96-2.25-0.95-0.93-2.41-0.93z"/>
						<path id="&lt;Compound Path&gt;" fill-rule="evenodd" class="s0" d="m661.08-92h-2.85v-2.83h2.85q1.21 0.01 1.98-0.75 0.77-0.73 0.77-1.81 0-1.07-0.77-1.81-0.77-0.75-1.98-0.75h-2.85v-4.3c-3.43-0.7-6.34-2.49-8.67-5.34-2.43-2.98-3.66-6.48-3.66-10.4 0-3.95 1.56-7.5 4.63-10.55 3.07-3.05 6.9-4.6 11.37-4.6 4.49 0 8.36 1.71 11.52 5.09l0.17 0.18v5.52l-1.14-1.68q-1.89-2.8-4.78-4.46-2.88-1.63-6.02-1.63c-3.33 0-6.28 1.25-8.75 3.73-2.47 2.47-3.73 5.46-3.73 8.88 0 3.41 1.26 6.4 3.73 8.87 2.47 2.48 5.42 3.73 8.75 3.73q3.14 0 6.02-1.64c1.92-1.08 3.53-2.6 4.78-4.5l1.14-1.73v5.62l-0.16 0.17c-3.08 3.39-6.94 5.1-11.46 5.1h-0.57q-0.19 0-0.34 0l0.02 1.05q2.28 0.01 3.9 1.58 1.61 1.58 1.61 3.75v0.25q0 2.16-1.58 3.72-1.59 1.54-3.93 1.54zm-1.61-1.24h1.61q1.85 0.01 3.06-1.19 1.22-1.19 1.21-2.83v-0.25q0.01-1.65-1.24-2.87-1.25-1.22-3.03-1.22h-1.26v-3.83l0.81 0.27c0.01 0 0.16 0.03 0.77 0.03h0.57c4.08 0 7.57-1.52 10.38-4.52v-1.2q-1.74 2.06-4.07 3.38c-2.1 1.2-4.33 1.8-6.63 1.8-3.67 0-6.91-1.38-9.63-4.09-2.71-2.72-4.09-6-4.09-9.75 0-3.76 1.38-7.05 4.09-9.76 2.72-2.71 5.96-4.09 9.63-4.09 2.3 0 4.53 0.61 6.63 1.8q2.33 1.33 4.07 3.34v-1.16c-2.89-3-6.4-4.52-10.45-4.52-4.13 0-7.67 1.43-10.5 4.24-2.83 2.81-4.26 6.07-4.26 9.67 0 3.63 1.14 6.86 3.39 9.62 2.24 2.75 5.07 4.43 8.42 5l0.52 0.08v4.1h1.61q1.71 0 2.84 1.1 1.14 1.11 1.15 2.7-0.01 1.6-1.15 2.7-1.13 1.1-2.84 1.1h-1.61z"/>
					</g>
					<g id="&lt;Group&gt;">
						<path id="&lt;Compound Path&gt;" fill-rule="evenodd" class="s0" d="m681.8-109.18q-4.38-4.55-4.38-10.59 0-6.04 4.45-10.46 4.45-4.42 10.71-4.42 6.26 0 10.68 4.42 4.42 4.42 4.42 10.49 0 6.08-4.32 10.59-4.33 4.51-10.49 4.51h-0.58q-6.1 0-10.49-4.54zm23.85-10.43q0-5.37-3.85-9.31-3.85-3.95-9.19-3.95-5.34 0-9.25 3.98-3.91 3.97-3.91 9.31 0 5.34 3.91 9.25 3.91 3.91 9.28 3.91 5.38 0 9.19-3.91 3.82-3.91 3.82-9.28z"/>
						<path id="&lt;Compound Path&gt;" fill-rule="evenodd" class="s0" d="m692.87-104.02h-0.58c-4.22 0-7.9-1.59-10.93-4.73-3.03-3.14-4.56-6.84-4.56-11.02 0-4.18 1.56-7.85 4.63-10.9 3.08-3.05 6.83-4.6 11.15-4.6 4.33 0 8.07 1.55 11.12 4.6 3.05 3.06 4.6 6.73 4.6 10.93 0 4.2-1.51 7.9-4.49 11.02-2.99 3.12-6.68 4.7-10.94 4.7zm-0.29-30.01c-3.98 0-7.44 1.43-10.28 4.24-2.83 2.81-4.26 6.18-4.26 10.02 0 3.85 1.41 7.26 4.21 10.16 2.79 2.89 6.17 4.35 10.04 4.35h0.58c3.91 0 7.29-1.45 10.04-4.32 2.75-2.87 4.15-6.29 4.15-10.16 0-3.85-1.42-7.24-4.24-10.05-2.81-2.81-6.26-4.24-10.24-4.24zm0.06 28.23c-3.73 0-7-1.37-9.72-4.09-2.71-2.71-4.09-5.97-4.09-9.69 0-3.71 1.38-6.99 4.09-9.75 2.71-2.76 5.98-4.16 9.69-4.16 3.72 0 6.96 1.39 9.63 4.13 2.67 2.74 4.03 6.02 4.03 9.75 0 3.73-1.35 7-3.99 9.72-2.66 2.72-5.9 4.09-9.64 4.09zm-0.03-26.45c-3.37 0-6.33 1.28-8.81 3.79-2.47 2.52-3.73 5.51-3.73 8.88 0 3.37 1.25 6.34 3.73 8.82 2.48 2.47 5.45 3.72 8.84 3.72 3.39 0 6.34-1.25 8.75-3.72 2.41-2.48 3.64-5.45 3.64-8.85 0-3.4-1.24-6.38-3.67-8.88-2.43-2.49-5.38-3.76-8.75-3.76z"/>
					</g>
					<g id="&lt;Group&gt;">
						<path id="&lt;Compound Path&gt;" class="s0" d="m719.95-132.93q-1.65 0-2.92 1.08-1.27 1.08-1.27 2.67 0 1.59 1.43 2.92 1.43 1.34 3.43 2.45 2 1.12 4.04 2.39 2.03 1.27 3.46 3.24 1.43 1.97 1.43 4.51 0 3.76-2.83 6.39-2.83 2.64-6.83 2.64-2.54 0-4.74-1.11-2.19-1.11-3.21-2.96v-3.05q2.42 5.34 7.76 5.34 3.3 0.01 5.56-2.03 2.26-2.03 2.26-4.55 0-2.51-1.43-4.23-1.43-1.71-3.47-2.92-2.03-1.21-4.03-2.39-2.01-1.17-3.44-2.86-1.43-1.68-1.43-3.94 0-2.25 1.81-3.81 1.82-1.56 4.68-1.56 2.86 0 4.89 2.22v2.61q-2.03-3.05-5.15-3.05z"/>
						<path id="&lt;Compound Path&gt;" fill-rule="evenodd" class="s0" d="m719.89-104.02q-2.69 0-5.02-1.18-2.36-1.2-3.47-3.21l-0.08-0.3v-5.92l1.19 2.62c1.51 3.35 3.87 4.97 7.19 4.97 2.06 0 3.75-0.61 5.15-1.87 1.38-1.25 2.05-2.58 2.05-4.09 0-1.53-0.42-2.79-1.29-3.83q-1.36-1.63-3.3-2.79-2.04-1.2-4.04-2.38-2.09-1.23-3.59-2.99-1.57-1.87-1.58-4.35 0.01-2.53 2.03-4.28 1.99-1.71 5.08-1.71 3.13 0 5.35 2.43l0.16 0.17v4.9l-1.13-1.7c-1.25-1.87-2.76-2.78-4.64-2.78q-1.42-0.01-2.52 0.93-1.06 0.9-1.05 2.2-0.01 1.32 1.23 2.47 1.38 1.29 3.31 2.36 2.03 1.13 4.07 2.4 2.13 1.34 3.63 3.41 1.55 2.13 1.55 4.87c0 2.67-1.01 4.98-3.02 6.85-2 1.86-4.44 2.8-7.26 2.8zm-7.33-4.85q0.93 1.58 2.87 2.57 2.07 1.04 4.46 1.04c2.53 0 4.63-0.8 6.41-2.47 1.77-1.65 2.63-3.59 2.63-5.94 0-1.57-0.43-2.93-1.31-4.15q-1.36-1.87-3.29-3.08-2.01-1.25-4.01-2.36-2.07-1.15-3.56-2.54-1.62-1.52-1.62-3.38 0-1.87 1.49-3.14 1.44-1.23 3.32-1.23 2.62 0 4.53 1.92v-0.61c-1.21-1.25-2.61-1.85-4.27-1.85q-2.63 0-4.27 1.41c-1.07 0.92-1.6 2.02-1.6 3.34 0 1.37 0.42 2.53 1.28 3.54q1.37 1.61 3.28 2.73 2 1.18 4.04 2.39 2.13 1.26 3.62 3.06 1.58 1.89 1.58 4.62-0.01 2.79-2.46 5.01-2.44 2.19-5.98 2.19-4.56 0-7.14-3.62z"/>
					</g>
					<g id="&lt;Group&gt;">
						<path id="&lt;Compound Path&gt;" fill-rule="evenodd" class="s0" d="m758.8-153.02h2.74q6.16 0 10.84 4.54 4.67 4.55 4.67 10.69 0 6.13-4.77 10.65-4.77 4.51-10.24 4.51h-0.44l16.4 17.29h-2.73l-14.43-15.13v15.13h-2.04zm2.04 28.55h1.14q5.15 0 9.09-3.94 3.94-3.94 3.95-9.34-0.01-5.41-4.07-9.41-4.07-4.01-9.29-4.01h-0.82z"/>
						<path id="&lt;Compound Path&gt;" fill-rule="evenodd" class="s0" d="m779.45-104.72h-4.45l-13.54-14.2v14.2h-3.28v-48.92h3.36c4.25 0 8.05 1.59 11.27 4.72 3.22 3.14 4.86 6.88 4.86 11.13 0 4.24-1.67 7.98-4.96 11.1-3.01 2.84-6.26 4.4-9.7 4.65zm-3.91-1.24h1.03l-16.41-17.3h1.89c3.46 0 6.76-1.46 9.81-4.34 3.03-2.88 4.57-6.31 4.57-10.2 0-3.9-1.51-7.35-4.48-10.24-2.98-2.9-6.49-4.37-10.41-4.37h-2.11v46.45h0.79v-16.06zm-13.55-17.9h-1.77v-27.95h1.45c3.62 0 6.89 1.41 9.72 4.19 2.82 2.78 4.25 6.09 4.25 9.85 0 3.75-1.39 7.05-4.12 9.78-2.74 2.74-5.95 4.13-9.53 4.13zm-0.53-1.24h0.53c3.24 0 6.15-1.27 8.65-3.76 2.5-2.5 3.76-5.5 3.76-8.91 0-3.41-1.31-6.43-3.88-8.97-2.59-2.54-5.56-3.83-8.85-3.83h-0.21z"/>
					</g>
					<g id="&lt;Group&gt;">
						<path id="&lt;Compound Path&gt;" fill-rule="evenodd" class="s0" d="m798.03-104.57h-0.57q-6.04 0-10.52-4.55-4.48-4.54-4.48-10.58 0-6.05 4.45-10.47 4.45-4.41 11-4.41 6.54 0 11.25 5.21l-19.97 19.71q4.14 3.31 7.95 3.31 3.82 0 6.84-1.75 3.02-1.75 4.99-4.67v3.24q-4.52 4.96-10.94 4.96zm-0.67-28.23q-5.05 0-8.96 3.91-3.91 3.91-3.91 8.99 0 5.09 3.37 8.91l18.5-18.38q-3.94-3.43-9-3.43z"/>
						<path id="&lt;Compound Path&gt;" fill-rule="evenodd" class="s0" d="m798.03-103.95h-0.57c-4.18 0-7.87-1.59-10.96-4.73-3.1-3.14-4.66-6.85-4.66-11.02 0-4.18 1.55-7.85 4.63-10.91 3.07-3.05 6.92-4.59 11.44-4.59 4.52 0 8.46 1.82 11.71 5.41l0.4 0.44-19.89 19.63q3.67 2.74 7.01 2.75 3.65-0.01 6.53-1.67 2.89-1.68 4.78-4.48l1.14-1.68v5.51l-0.16 0.17c-3.12 3.43-6.96 5.17-11.4 5.17zm-0.12-30.01c-4.18 0-7.73 1.42-10.57 4.23-2.83 2.82-4.26 6.19-4.26 10.03 0 3.83 1.44 7.25 4.3 10.15 2.85 2.89 6.24 4.36 10.08 4.36h0.57c4 0 7.47-1.55 10.32-4.58v-1.17q-1.74 2.03-4.06 3.38c-2.1 1.21-4.51 1.83-7.15 1.83-2.67 0-5.48-1.16-8.33-3.45l-0.55-0.43 20.04-19.78c-2.92-3.04-6.42-4.57-10.39-4.57zm-10.08 23.87l-0.44-0.49c-2.33-2.65-3.52-5.78-3.52-9.32 0-3.54 1.38-6.72 4.09-9.43 2.72-2.72 5.88-4.09 9.4-4.09 3.51 0 6.68 1.2 9.41 3.58l0.5 0.44zm9.54-22.09c-3.19 0-6.06 1.25-8.53 3.73-2.47 2.47-3.73 5.35-3.73 8.56 0 3 0.94 5.68 2.79 7.99l17.54-17.43c-2.37-1.89-5.09-2.85-8.07-2.85z"/>
					</g>
					<g id="&lt;Group&gt;">
						<path id="&lt;Compound Path&gt;" class="s0" d="m821.43-132.93q-1.65 0-2.92 1.08-1.28 1.08-1.28 2.67 0 1.59 1.43 2.92 1.44 1.34 3.44 2.45 2 1.12 4.04 2.39 2.03 1.27 3.46 3.24 1.43 1.97 1.43 4.51 0 3.76-2.83 6.39-2.83 2.64-6.83 2.64-2.55 0-4.74-1.11-2.19-1.11-3.21-2.96v-3.05q2.42 5.34 7.76 5.34 3.3 0.01 5.56-2.03 2.26-2.03 2.26-4.55 0-2.51-1.43-4.23-1.43-1.71-3.47-2.92-2.03-1.21-4.04-2.39-2-1.17-3.43-2.86-1.43-1.68-1.43-3.94 0-2.25 1.81-3.81 1.81-1.56 4.67-1.56 2.87 0 4.9 2.22v2.61q-2.04-3.05-5.15-3.05z"/>
						<path id="&lt;Compound Path&gt;" fill-rule="evenodd" class="s0" d="m821.37-104.02q-2.69 0-5.02-1.18-2.36-1.2-3.47-3.21l-0.08-0.3v-5.92l1.18 2.62c1.52 3.35 3.87 4.97 7.2 4.97 2.06 0 3.74-0.61 5.14-1.87 1.39-1.25 2.06-2.58 2.06-4.09 0-1.53-0.42-2.79-1.29-3.83q-1.36-1.63-3.31-2.79-2.03-1.2-4.03-2.38-2.09-1.23-3.59-2.99-1.58-1.87-1.58-4.35 0-2.53 2.03-4.28 1.99-1.71 5.07-1.71 3.13 0 5.36 2.43l0.16 0.17v4.9l-1.14-1.7c-1.24-1.87-2.76-2.78-4.63-2.78q-1.43-0.01-2.52 0.93-1.06 0.9-1.06 2.2 0 1.32 1.24 2.47 1.38 1.29 3.31 2.36 2.03 1.13 4.06 2.4 2.14 1.34 3.64 3.41 1.55 2.13 1.55 4.87c0 2.67-1.02 4.98-3.03 6.85-1.99 1.86-4.43 2.8-7.25 2.8zm-7.33-4.85q0.93 1.58 2.87 2.57 2.07 1.04 4.46 1.04c2.53 0 4.63-0.8 6.41-2.47 1.77-1.65 2.63-3.59 2.63-5.94 0-1.57-0.43-2.93-1.31-4.15q-1.36-1.87-3.29-3.08-2.01-1.25-4.01-2.36-2.07-1.15-3.56-2.54-1.62-1.52-1.63-3.38 0.01-1.87 1.49-3.14 1.45-1.23 3.33-1.23 2.61 0 4.53 1.92v-0.61c-1.21-1.25-2.61-1.85-4.28-1.85q-2.62 0-4.26 1.41c-1.08 0.92-1.6 2.02-1.6 3.34 0 1.37 0.42 2.53 1.28 3.54q1.37 1.61 3.28 2.73 2 1.18 4.04 2.39 2.13 1.26 3.62 3.06 1.57 1.89 1.58 4.62-0.01 2.79-2.47 5.01-2.43 2.19-5.97 2.19-4.56 0-7.14-3.62z"/>
					</g>
					<g id="&lt;Group&gt;">
						<path id="&lt;Compound Path&gt;" class="s0" d="m838.92-140.88c-1.02 0-1.85-0.77-1.85-1.72 0-0.95 0.83-1.71 1.85-1.71 1.02 0 1.84 0.76 1.84 1.71 0 0.95-0.82 1.72-1.84 1.72zm1.01 6.99v28.55h-2.03v-28.55z"/>
						<path id="&lt;Compound Path&gt;" fill-rule="evenodd" class="s0" d="m840.55-134.51v29.79h-3.27v-29.79zm-2.03 1.24v27.31h0.79v-27.31zm0.4-6.99c-1.37 0-2.47-1.04-2.47-2.34 0-1.29 1.1-2.33 2.47-2.33 1.36 0 2.46 1.04 2.46 2.33 0 1.3-1.1 2.34-2.46 2.34zm0-3.43c-1.02 0-1.23 0.42-1.23 1.09 0 0.68 0.21 1.1 1.23 1.1 1.02 0 1.22-0.42 1.22-1.1 0-0.67-0.2-1.09-1.22-1.09z"/>
					</g>
					<g id="&lt;Group&gt;">
						<path id="&lt;Compound Path&gt;" fill-rule="evenodd" class="s0" d="m876.94-153.02v47.68h-2.04v-6.93q-1.9 3.5-5.53 5.57-3.62 2.06-7.44 2.06-6.29 0-10.71-4.41-4.42-4.42-4.42-10.59 0-6.17 4.42-10.59 4.42-4.42 10.71-4.42 3.94 0 7.6 2.1 3.66 2.1 5.37 5.6v-26.07zm-28.1 33.41q0 5.37 3.81 9.28 3.82 3.91 9.19 3.91 5.38 0 9.29-3.91 3.91-3.91 3.91-9.25 0-5.34-3.91-9.31-3.91-3.98-9.26-3.98-5.34 0-9.18 3.95-3.85 3.94-3.85 9.31z"/>
						<path id="&lt;Compound Path&gt;" fill-rule="evenodd" class="s0" d="m861.93-104.02c-4.35 0-8.1-1.54-11.15-4.6-3.05-3.05-4.6-6.76-4.6-11.02 0-4.26 1.55-7.97 4.6-11.03 3.06-3.05 6.81-4.6 11.15-4.6 2.73 0 5.39 0.74 7.91 2.18q2.73 1.58 4.44 3.91v-24.46h3.28v48.92h-3.28v-5.44q-1.82 2.41-4.6 3.99c-2.5 1.43-5.11 2.15-7.75 2.15zm0-30.01c-4 0-7.46 1.43-10.27 4.24-2.81 2.81-4.24 6.23-4.24 10.15 0 3.92 1.43 7.34 4.24 10.15 2.81 2.81 6.27 4.23 10.27 4.23 2.42 0 4.82-0.66 7.13-1.98 2.31-1.31 4.09-3.1 5.3-5.32l1.16-2.14v8.74h0.8v-46.44h-0.8v28.11l-1.17-2.39c-1.09-2.21-2.81-4-5.13-5.33-2.33-1.34-4.78-2.02-7.29-2.02zm-0.09 28.23c-3.74 0-6.98-1.37-9.63-4.09-2.65-2.72-4-5.99-4-9.72 0-3.73 1.36-7.01 4.03-9.75 2.67-2.74 5.91-4.13 9.63-4.13 3.72 0 6.98 1.4 9.69 4.16 2.72 2.76 4.09 6.04 4.09 9.75 0 3.72-1.38 6.98-4.09 9.69-2.72 2.72-5.99 4.09-9.72 4.09zm0.03-26.45c-3.37 0-6.32 1.27-8.74 3.76-2.44 2.49-3.68 5.48-3.68 8.88 0 3.4 1.23 6.37 3.64 8.85 2.41 2.47 5.36 3.72 8.75 3.72 3.39 0 6.37-1.25 8.84-3.72 2.48-2.48 3.73-5.45 3.73-8.82 0-3.37-1.25-6.36-3.73-8.88-2.48-2.51-5.44-3.79-8.81-3.79z"/>
					</g>
					<g id="&lt;Group&gt;">
						<path id="&lt;Compound Path&gt;" fill-rule="evenodd" class="s0" d="m898.87-104.57h-0.57q-6.04 0-10.52-4.55-4.48-4.54-4.48-10.58 0-6.05 4.45-10.47 4.45-4.41 11-4.41 6.54 0 11.25 5.21l-19.97 19.71q4.14 3.31 7.95 3.31 3.82 0 6.84-1.75 3.02-1.75 4.99-4.67v3.24q-4.52 4.96-10.94 4.96zm-0.66-28.23q-5.06 0-8.97 3.91-3.91 3.91-3.91 8.99 0 5.09 3.37 8.91l18.5-18.38q-3.94-3.43-8.99-3.43z"/>
						<path id="&lt;Compound Path&gt;" fill-rule="evenodd" class="s0" d="m898.87-103.95h-0.57c-4.18 0-7.87-1.59-10.96-4.73-3.1-3.14-4.66-6.85-4.66-11.02 0-4.18 1.56-7.85 4.63-10.91 3.07-3.05 6.92-4.59 11.44-4.59 4.52 0 8.46 1.82 11.71 5.41l0.4 0.44-19.89 19.63q3.67 2.74 7.01 2.75 3.65-0.01 6.53-1.67 2.89-1.68 4.78-4.48l1.14-1.68v5.51l-0.16 0.17c-3.12 3.43-6.96 5.17-11.4 5.17zm-0.12-30.01c-4.18 0-7.73 1.42-10.57 4.23-2.83 2.82-4.26 6.19-4.26 10.03 0 3.83 1.44 7.25 4.3 10.15 2.85 2.89 6.25 4.36 10.08 4.36h0.57c4.01 0 7.48-1.55 10.32-4.58v-1.17q-1.74 2.03-4.06 3.38c-2.1 1.21-4.51 1.83-7.15 1.83-2.67 0-5.48-1.16-8.33-3.45l-0.55-0.43 20.04-19.78c-2.92-3.04-6.42-4.57-10.39-4.57zm-10.08 23.87l-0.44-0.49c-2.33-2.65-3.52-5.78-3.52-9.32 0-3.54 1.38-6.72 4.09-9.43 2.72-2.72 5.88-4.09 9.41-4.09 3.51 0 6.67 1.2 9.4 3.58l0.5 0.44zm9.54-22.09c-3.19 0-6.06 1.25-8.53 3.73-2.47 2.47-3.73 5.35-3.73 8.56 0 3 0.94 5.68 2.79 7.99l17.54-17.43c-2.37-1.89-5.09-2.85-8.07-2.85z"/>
					</g>
					<g id="&lt;Group&gt;">
						<path id="&lt;Compound Path&gt;" class="s0" d="m918.08-105.34h-2.04v-28.61h2.04v5.79q3.24-6.49 11.06-6.49 5.34 0 8.97 3.69 3.62 3.69 3.62 8.97v16.65h-2.04v-16.65q0.01-4.39-3.08-7.63-3.09-3.25-7.47-3.25-4.39 0-7.73 3.25-3.33 3.24-3.33 7.63z"/>
						<path id="&lt;Compound Path&gt;" fill-rule="evenodd" class="s0" d="m942.35-104.72h-3.28v-17.27c0-2.75-0.98-5.18-2.91-7.2-1.95-2.06-4.25-3.06-7.02-3.06-2.75 0-5.2 1.04-7.3 3.07-2.09 2.03-3.14 4.45-3.14 7.19v17.27h-3.28v-29.85h3.28v4.18c2.34-3.24 5.84-4.88 10.44-4.88 3.72 0 6.88 1.3 9.41 3.88 2.52 2.56 3.8 5.73 3.8 9.4zm-2.04-1.24h0.8v-16.04c0-3.34-1.16-6.21-3.45-8.53-2.28-2.33-5.15-3.51-8.52-3.51-5.01 0-8.44 2.01-10.51 6.15l-1.17 2.35v-7.8h-0.8v27.38h0.8v-16.04c0-3.09 1.18-5.8 3.52-8.08 2.34-2.26 5.08-3.41 8.16-3.41 3.08 0 5.75 1.15 7.92 3.43 2.16 2.27 3.25 4.98 3.25 8.06z"/>
					</g>
					<g id="&lt;Group&gt;">
						<path id="&lt;Compound Path&gt;" class="s0" d="m963.22-104.51h-0.57q-6.11 0-10.49-4.51-4.39-4.52-4.39-10.59 0-6.07 4.45-10.49 4.45-4.42 10.93-4.42 6.49 0 11.07 4.9v3.24q-1.97-2.93-4.99-4.64-3.02-1.72-6.33-1.72-5.28 0-9.19 3.91-3.91 3.91-3.91 9.32 0 5.4 3.91 9.31 3.91 3.91 9.19 3.91 3.31 0 6.33-1.72 3.02-1.71 4.99-4.7v3.31q-4.45 4.89-11 4.89z"/>
						<path id="&lt;Compound Path&gt;" fill-rule="evenodd" class="s0" d="m963.22-103.89h-0.57c-4.23 0-7.91-1.58-10.94-4.7-3.03-3.12-4.56-6.82-4.56-11.02 0-4.2 1.56-7.88 4.63-10.93 3.07-3.05 6.9-4.6 11.37-4.6 4.49 0 8.36 1.71 11.52 5.09l0.17 0.18v5.52l-1.13-1.68q-1.9-2.8-4.79-4.46-2.88-1.63-6.02-1.63c-3.33 0-6.27 1.25-8.75 3.73-2.47 2.47-3.73 5.46-3.73 8.88 0 3.41 1.26 6.4 3.73 8.87 2.48 2.48 5.42 3.73 8.75 3.73q3.14 0 6.02-1.64 2.89-1.64 4.78-4.5l1.14-1.73v5.62l-0.16 0.17c-3.08 3.39-6.93 5.1-11.46 5.1zm-0.07-30.01c-4.13 0-7.66 1.43-10.5 4.24-2.83 2.81-4.26 6.19-4.26 10.05 0 3.86 1.41 7.28 4.21 10.16 2.79 2.87 6.17 4.32 10.05 4.32h0.57c4.09 0 7.58-1.52 10.38-4.52v-1.2q-1.74 2.06-4.07 3.38c-2.09 1.2-4.33 1.8-6.63 1.8-3.67 0-6.91-1.38-9.63-4.09-2.71-2.72-4.09-6-4.09-9.75 0-3.76 1.38-7.04 4.09-9.76 2.72-2.71 5.96-4.09 9.63-4.09 2.3 0 4.54 0.61 6.64 1.8q2.32 1.32 4.06 3.35v-1.17c-2.89-3-6.4-4.52-10.45-4.52z"/>
					</g>
					<g id="&lt;Group&gt;">
						<path id="&lt;Compound Path&gt;" class="s0" d="m981.47-140.88c-1.02 0-1.85-0.77-1.85-1.72 0-0.95 0.83-1.71 1.85-1.71 1.01 0 1.84 0.76 1.84 1.71 0 0.95-0.83 1.72-1.84 1.72zm1.01 6.99v28.55h-2.03v-28.55z"/>
						<path id="&lt;Compound Path&gt;" fill-rule="evenodd" class="s0" d="m983.1-134.51v29.79h-3.27v-29.79zm-2.03 1.24v27.31h0.79v-27.31zm0.4-6.99c-1.37 0-2.47-1.04-2.47-2.34 0-1.29 1.1-2.33 2.47-2.33 1.36 0 2.46 1.04 2.46 2.33 0 1.3-1.1 2.34-2.46 2.34zm0-3.43c-1.02 0-1.23 0.42-1.23 1.09 0 0.68 0.21 1.1 1.23 1.1 1.02 0 1.22-0.42 1.22-1.1 0-0.67-0.2-1.09-1.22-1.09z"/>
					</g>
					<g id="&lt;Group&gt;">
						<path id="&lt;Compound Path&gt;" fill-rule="evenodd" class="s0" d="m1019.49-133.95v28.61h-2.03v-7.12q-1.79 3.63-5.35 5.72-3.56 2.1-7.63 2.1-6.23 0-10.68-4.41-4.45-4.42-4.45-10.59 0-6.17 4.45-10.59 4.45-4.42 10.68-4.42 4.07 0 7.79 2.16 3.72 2.17 5.19 5.73v-7.19zm-28.11 14.37q0 5.34 3.91 9.25 3.91 3.91 9.29 3.91 5.37 0 9.18-3.91 3.82-3.91 3.82-9.28 0-5.37-3.85-9.31-3.85-3.95-9.19-3.95-5.34 0-9.25 3.98-3.91 3.97-3.91 9.31z"/>
						<path id="&lt;Compound Path&gt;" fill-rule="evenodd" class="s0" d="m1004.48-104.02c-4.3 0-8.04-1.54-11.11-4.59-3.08-3.06-4.64-6.77-4.64-11.03 0-4.26 1.56-7.97 4.64-11.03 3.07-3.05 6.81-4.6 11.11-4.6 2.81 0 5.54 0.76 8.11 2.25q2.67 1.55 4.25 3.83v-5.38h3.27v29.85h-3.27v-5.49q-1.73 2.43-4.41 4.01c-2.46 1.45-5.13 2.18-7.95 2.18zm0-30.01c-3.96 0-7.41 1.43-10.24 4.24-2.83 2.81-4.27 6.23-4.27 10.15 0 3.92 1.44 7.33 4.27 10.14 2.83 2.82 6.28 4.24 10.24 4.24 2.59 0 5.05-0.67 7.32-2.01 2.25-1.33 3.97-3.17 5.1-5.46l1.18-2.39v9.16h0.79v-27.37h-0.79v9.7l-1.2-2.9c-0.92-2.23-2.57-4.06-4.92-5.42-2.37-1.38-4.89-2.08-7.48-2.08zm0.1 28.23c-3.73 0-7.01-1.37-9.72-4.09-2.72-2.71-4.09-5.98-4.09-9.69 0-3.71 1.37-6.99 4.08-9.75 2.72-2.76 5.98-4.16 9.7-4.16 3.72 0 6.96 1.39 9.63 4.13 2.67 2.74 4.02 6.02 4.02 9.75 0 3.73-1.34 7-3.99 9.72-2.65 2.72-5.89 4.09-9.63 4.09zm-0.03-26.45c-3.37 0-6.34 1.28-8.81 3.79-2.48 2.52-3.74 5.51-3.74 8.88 0 3.37 1.26 6.34 3.73 8.82 2.48 2.47 5.46 3.72 8.85 3.72 3.39 0 6.33-1.25 8.74-3.72 2.42-2.47 3.64-5.45 3.64-8.85 0-3.4-1.23-6.39-3.67-8.88-2.46-2.53-5.32-3.76-8.74-3.76z"/>
					</g>
					<g id="&lt;Group&gt;">
						<path id="&lt;Compound Path&gt;" class="s0" d="m1028.47-140.88c-1.02 0-1.85-0.77-1.85-1.72 0-0.95 0.83-1.71 1.85-1.71 1.02 0 1.84 0.76 1.84 1.71 0 0.95-0.82 1.72-1.84 1.72zm1.01 6.99v28.55h-2.03v-28.55z"/>
						<path id="&lt;Compound Path&gt;" fill-rule="evenodd" class="s0" d="m1030.1-134.51v29.79h-3.27v-29.79zm-2.03 1.24v27.31h0.79v-27.31zm0.4-6.99c-1.37 0-2.47-1.04-2.47-2.34 0-1.29 1.1-2.33 2.47-2.33 1.36 0 2.46 1.04 2.46 2.33 0 1.3-1.1 2.34-2.46 2.34zm0-3.43c-1.02 0-1.23 0.42-1.23 1.09 0 0.68 0.21 1.1 1.23 1.1 1.02 0 1.22-0.42 1.22-1.1 0-0.67-0.2-1.09-1.22-1.09z"/>
					</g>
					<g id="&lt;Group&gt;">
						<path id="&lt;Compound Path&gt;" class="s0" d="m1044.17-132.93q-1.65 0-2.92 1.08-1.28 1.08-1.27 2.67 0 1.59 1.42 2.92 1.44 1.34 3.44 2.45 2 1.12 4.04 2.39 2.03 1.27 3.46 3.24 1.43 1.97 1.43 4.51 0 3.76-2.83 6.39-2.83 2.64-6.83 2.64-2.55 0-4.74-1.11-2.19-1.11-3.21-2.96v-3.05q2.42 5.34 7.76 5.34 3.3 0.01 5.56-2.03 2.26-2.03 2.26-4.55 0-2.51-1.43-4.23-1.43-1.71-3.47-2.92-2.03-1.21-4.04-2.39-2-1.17-3.43-2.86-1.43-1.68-1.43-3.94 0-2.25 1.81-3.81 1.82-1.56 4.68-1.56 2.86 0 4.89 2.22v2.61q-2.03-3.05-5.15-3.05z"/>
						<path id="&lt;Compound Path&gt;" fill-rule="evenodd" class="s0" d="m1044.11-104.02q-2.69 0-5.02-1.18-2.36-1.2-3.47-3.21l-0.08-0.3v-5.92l1.18 2.62c1.52 3.35 3.87 4.97 7.2 4.97 2.06 0 3.75-0.61 5.14-1.87 1.39-1.25 2.06-2.58 2.06-4.09 0-1.53-0.42-2.79-1.29-3.83q-1.35-1.63-3.31-2.79-2.03-1.2-4.03-2.38-2.09-1.23-3.59-2.99-1.58-1.87-1.58-4.35 0-2.53 2.03-4.28 1.99-1.71 5.08-1.71 3.12 0 5.35 2.43l0.16 0.17v4.9l-1.13-1.7c-1.25-1.87-2.77-2.78-4.64-2.78q-1.42-0.01-2.52 0.93-1.06 0.89-1.05 2.2-0.01 1.32 1.23 2.47 1.37 1.28 3.31 2.36 2 1.12 4.07 2.4 2.13 1.34 3.63 3.41 1.55 2.13 1.55 4.87c0 2.67-1.02 4.98-3.02 6.85-2 1.86-4.44 2.8-7.26 2.8zm-7.33-4.85q0.93 1.58 2.87 2.57 2.07 1.04 4.46 1.04c2.53 0 4.63-0.8 6.41-2.47 1.77-1.65 2.63-3.59 2.63-5.94 0-1.57-0.42-2.93-1.31-4.15q-1.36-1.87-3.29-3.08-2.04-1.27-4.01-2.36-2.07-1.16-3.56-2.54-1.62-1.52-1.62-3.38 0-1.88 1.49-3.14 1.44-1.23 3.32-1.23 2.61 0 4.53 1.93v-0.62c-1.21-1.25-2.61-1.85-4.27-1.85q-2.63 0-4.27 1.41c-1.08 0.92-1.6 2.02-1.6 3.34 0 1.37 0.42 2.53 1.28 3.54q1.37 1.61 3.28 2.73 2 1.18 4.04 2.39 2.13 1.27 3.63 3.06 1.56 1.89 1.57 4.62-0.01 2.79-2.47 5.01-2.43 2.19-5.97 2.19-4.56 0-7.14-3.62z"/>
					</g>
					<g id="&lt;Group&gt;">
						<path id="&lt;Compound Path&gt;" class="s0" d="m1082.2-120.47q0-5.09 3.15-9.34 3.14-4.26 8.17-5.79-2.36-1.15-3.88-3.5-1.53-2.35-1.53-4.96 0-4 2.86-6.8 2.86-2.8 7.19-2.8 4.32 0 7.25 3.31v3.37q-0.89-2.1-2.99-3.5-2.1-1.4-4.87-1.4-2.76 0-5.08 2.32-2.33 2.32-2.33 5.44 0 3.11 2.33 5.44 2.31 2.32 5.5 2.31h0.88v1.79h-0.5q-5.73 0-9.95 4.23-4.23 4.22-4.23 9.98 0 5.75 4.19 9.92 4.2 4.16 9.99 4.16 5.78 0 9.98-4.13 4.2-4.13 4.2-9.98v-14.18h-8.84v-1.79h19.58v1.79h-8.83v29.24h-1.91v-8.13q-1.4 3.81-5.44 6.42-4.04 2.61-8.74 2.61-6.68 0-11.42-4.74-4.73-4.74-4.73-11.29z"/>
						<path id="&lt;Compound Path&gt;" fill-rule="evenodd" class="s0" d="m1098.35-103.82c-4.6 0-8.59-1.66-11.85-4.92-3.27-3.27-4.92-7.21-4.92-11.73 0-3.51 1.1-6.78 3.27-9.71 1.88-2.56 4.3-4.43 7.18-5.56q-1.71-1.16-2.91-3.02-1.63-2.51-1.63-5.3c0-2.83 1.03-5.27 3.05-7.24 2.02-1.98 4.58-2.98 7.62-2.98 3.05 0 5.64 1.18 7.71 3.52l0.16 0.17v6.65l-1.2-2.8q-0.82-1.93-2.76-3.22-1.94-1.29-4.52-1.3-2.51 0.01-4.64 2.14c-1.45 1.44-2.15 3.07-2.15 5 0 1.92 0.7 3.56 2.15 5 1.43 1.44 3.09 2.13 5.06 2.13h1.5v3.03h-1.12c-3.63 0-6.83 1.36-9.52 4.04-2.68 2.69-4.04 5.9-4.04 9.55 0 3.64 1.35 6.83 4.01 9.47 2.66 2.65 5.88 3.99 9.55 3.99 3.67 0 6.88-1.33 9.54-3.95 2.67-2.63 4.02-5.83 4.02-9.54v-13.56h-8.84v-3.03h20.82v3.03h-8.84v29.24h-3.14v-6.14q-1.61 2.47-4.48 4.33c-2.79 1.8-5.84 2.71-9.08 2.71zm-0.19-49.22c-2.7 0-4.97 0.88-6.75 2.62-1.81 1.76-2.68 3.84-2.68 6.36q0 2.43 1.43 4.62 1.43 2.21 3.63 3.28l1.42 0.69-1.51 0.46c-3.21 0.98-5.85 2.85-7.86 5.56-2 2.72-3.02 5.74-3.02 8.98 0 4.18 1.53 7.83 4.55 10.85 3.02 3.02 6.72 4.56 10.98 4.56 3 0 5.82-0.85 8.4-2.51 2.57-1.66 4.31-3.72 5.2-6.12l1.2-3.28v11.01h0.67v-29.24h8.83v-0.55h-18.34v0.55h8.84v14.8c0 4.05-1.48 7.56-4.38 10.42-2.91 2.86-6.41 4.31-10.42 4.31-4.01 0-7.52-1.46-10.42-4.34-2.91-2.89-4.38-6.37-4.38-10.36 0-3.99 1.48-7.5 4.41-10.42 2.9-2.9 6.35-4.38 10.27-4.41v-0.55h-0.26q-3.44 0-5.94-2.5-2.5-2.5-2.51-5.87 0.01-3.37 2.51-5.88 2.5-2.49 5.52-2.5 2.96 0.01 5.21 1.5 1.19 0.8 2.03 1.81v-0.92c-1.82-1.97-3.99-2.93-6.63-2.93z"/>
					</g>
					<g id="&lt;Group&gt;">
						<path id="&lt;Compound Path&gt;" fill-rule="evenodd" class="s0" d="m1151.18-153.02h2.1q6.61 0 11.26 4.54 4.64 4.55 4.64 10.72 0 6.17-4.8 10.62-4.8 4.45-10.59 4.45h-0.51v17.35h-2.1zm2.1 28.55h0.51q5.34 0 9.32-3.94 3.97-3.94 3.97-9.34 0-5.41-4.04-9.41-4.04-4.01-9.25-4.01h-0.51z"/>
						<path id="&lt;Compound Path&gt;" fill-rule="evenodd" class="s0" d="m1153.9-104.72h-3.34v-48.92h2.72c4.56 0 8.49 1.59 11.69 4.72 3.2 3.14 4.83 6.89 4.83 11.16 0 4.27-1.68 8-5 11.07-3.27 3.04-6.94 4.59-10.9 4.62zm-2.1-1.24h0.86v-17.36h1.13c3.68 0 7.1-1.44 10.17-4.29 3.05-2.83 4.6-6.25 4.6-10.16 0-3.92-1.5-7.38-4.46-10.27-2.96-2.9-6.6-4.37-10.82-4.37h-1.48zm1.99-17.9h-1.13v-27.95h1.13c3.63 0 6.89 1.41 9.69 4.19 2.8 2.78 4.22 6.09 4.22 9.85 0 3.76-1.4 7.05-4.16 9.79-2.76 2.73-6.04 4.12-9.75 4.12zm0.11-26.71v25.47c3.33-0.03 6.28-1.29 8.77-3.76 2.51-2.5 3.79-5.49 3.79-8.91 0-3.41-1.3-6.43-3.85-8.97-2.54-2.51-5.46-3.8-8.71-3.83z"/>
					</g>
					<g id="&lt;Group&gt;">
						<path id="&lt;Compound Path&gt;" class="s0" d="m1185.65-132.87q-3.37 0-5.95 2.55-2.57 2.54-2.57 5.91v19.07h-2.04v-28.61h2.04v4.26q1.14-2.16 3.56-3.56 2.41-1.4 5.4-1.4 2.99 0 5.73 2.04v2.54q-2.8-2.8-6.17-2.8z"/>
						<path id="&lt;Compound Path&gt;" fill-rule="evenodd" class="s0" d="m1177.75-104.72h-3.28v-29.85h3.28v2.91q1.07-1.22 2.63-2.13 2.56-1.47 5.71-1.48 3.19 0.01 6.1 2.16l0.25 0.19v4.35l-1.06-1.06c-1.76-1.76-3.64-2.62-5.73-2.62-2.1 0-3.9 0.78-5.51 2.37-1.61 1.59-2.39 3.38-2.39 5.47zm-2.04-1.24h0.8v-18.45c0-2.41 0.93-4.55 2.76-6.36 1.83-1.8 3.97-2.72 6.38-2.72q2.99 0 5.55 2.03v-0.84c-3.38-2.38-7.28-2.11-10.2-0.42q-2.26 1.31-3.32 3.32l-1.17 2.2v-6.13h-0.8z"/>
					</g>
					<g id="&lt;Group&gt;">
						<path id="&lt;Compound Path&gt;" fill-rule="evenodd" class="s0" d="m1211.52-104.57h-0.57q-6.04 0-10.52-4.55-4.48-4.54-4.48-10.58 0-6.05 4.45-10.47 4.45-4.41 11-4.41 6.55 0 11.25 5.21l-19.96 19.71q4.13 3.31 7.95 3.31 3.81 0 6.83-1.75 3.02-1.75 4.99-4.67v3.24q-4.51 4.96-10.94 4.96zm-0.66-28.23q-5.06 0-8.97 3.91-3.91 3.91-3.91 8.99 0 5.09 3.37 8.91l18.5-18.38q-3.94-3.43-8.99-3.43z"/>
						<path id="&lt;Compound Path&gt;" fill-rule="evenodd" class="s0" d="m1211.52-103.95h-0.57c-4.17 0-7.86-1.59-10.96-4.73-3.09-3.14-4.66-6.85-4.66-11.02 0-4.18 1.56-7.85 4.63-10.91 3.07-3.05 6.92-4.59 11.44-4.59 4.53 0 8.47 1.82 11.71 5.41l0.4 0.44-19.88 19.63q3.66 2.74 7.01 2.75c2.41 0 4.61-0.56 6.52-1.67q2.89-1.67 4.79-4.48l1.13-1.68v5.51l-0.16 0.17c-3.12 3.43-6.95 5.17-11.4 5.17zm-0.12-30.01c-4.18 0-7.73 1.42-10.57 4.23-2.83 2.82-4.26 6.19-4.26 10.03 0 3.83 1.44 7.25 4.3 10.15 2.86 2.89 6.25 4.36 10.08 4.36h0.57c4.01 0 7.48-1.55 10.32-4.58v-1.17q-1.74 2.03-4.06 3.38c-2.1 1.21-4.5 1.83-7.14 1.83-2.68 0-5.49-1.16-8.34-3.45l-0.54-0.43 20.03-19.78c-2.92-3.04-6.42-4.57-10.39-4.57zm-10.08 23.87l-0.43-0.49c-2.34-2.65-3.53-5.78-3.53-9.32 0-3.54 1.38-6.72 4.09-9.43 2.72-2.72 5.88-4.09 9.41-4.09 3.51 0 6.67 1.2 9.4 3.58l0.51 0.44zm9.53-22.09c-3.18 0-6.05 1.25-8.53 3.73-2.47 2.47-3.72 5.35-3.72 8.56 0 3 0.93 5.68 2.79 7.99l17.54-17.43c-2.38-1.89-5.1-2.85-8.08-2.85z"/>
					</g>
					<g id="&lt;Group&gt;">
						<path id="&lt;Compound Path&gt;" fill-rule="evenodd" class="s0" d="m1257.24-153.02v47.68h-2.03v-6.93q-1.91 3.5-5.54 5.57-3.62 2.06-7.44 2.06-6.29 0-10.71-4.41-4.42-4.42-4.42-10.59 0-6.17 4.42-10.59 4.42-4.42 10.71-4.42 3.95 0 7.6 2.1 3.66 2.1 5.38 5.6v-26.07zm-28.11 33.41q0 5.37 3.82 9.28 3.81 3.91 9.19 3.91 5.37 0 9.28-3.91 3.91-3.91 3.91-9.25 0-5.34-3.91-9.31-3.91-3.98-9.25-3.98-5.34 0-9.19 3.95-3.85 3.94-3.85 9.31z"/>
						<path id="&lt;Compound Path&gt;" fill-rule="evenodd" class="s0" d="m1242.23-104.02c-4.34 0-8.1-1.54-11.15-4.6-3.05-3.05-4.6-6.76-4.6-11.02 0-4.26 1.55-7.97 4.6-11.03 3.06-3.05 6.81-4.6 11.15-4.6 2.73 0 5.39 0.74 7.91 2.18q2.74 1.58 4.45 3.92v-24.47h3.27v48.92h-3.27v-5.44q-1.83 2.41-4.61 3.99c-2.5 1.43-5.1 2.15-7.75 2.15zm0-30.01c-4 0-7.46 1.43-10.27 4.24-2.81 2.81-4.24 6.23-4.24 10.15 0 3.92 1.43 7.34 4.24 10.15 2.81 2.81 6.27 4.23 10.27 4.23 2.43 0 4.83-0.66 7.14-1.98 2.3-1.31 4.08-3.1 5.29-5.32l1.17-2.14v8.74h0.79v-46.44h-0.79v28.11l-1.18-2.39c-1.09-2.21-2.81-4-5.13-5.33-2.33-1.34-4.78-2.02-7.29-2.02zm-0.09 28.23c-3.74 0-6.98-1.37-9.63-4.09-2.65-2.72-3.99-5.99-3.99-9.72 0-3.73 1.35-7.01 4.02-9.75 2.67-2.74 5.91-4.13 9.63-4.13 3.72 0 6.98 1.4 9.69 4.16 2.72 2.76 4.09 6.04 4.09 9.75 0 3.72-1.38 6.98-4.09 9.69-2.71 2.72-5.99 4.09-9.72 4.09zm0.03-26.45c-3.37 0-6.31 1.27-8.74 3.76-2.44 2.49-3.67 5.48-3.67 8.88 0 3.4 1.22 6.38 3.64 8.85 2.41 2.47 5.35 3.72 8.74 3.72 3.39 0 6.37-1.25 8.84-3.72 2.48-2.48 3.73-5.45 3.73-8.82 0-3.37-1.25-6.36-3.73-8.88-2.47-2.51-5.44-3.79-8.81-3.79z"/>
					</g>
					<g id="&lt;Group&gt;">
						<path id="&lt;Compound Path&gt;" class="s0" d="m1266.71-140.88c-1.02 0-1.84-0.77-1.84-1.72 0-0.95 0.82-1.71 1.84-1.71 1.02 0 1.85 0.76 1.85 1.71 0 0.95-0.83 1.72-1.85 1.72zm1.02 6.99v28.55h-2.03v-28.55z"/>
						<path id="&lt;Compound Path&gt;" fill-rule="evenodd" class="s0" d="m1268.35-134.51v29.79h-3.27v-29.79zm-2.04 1.24v27.31h0.8v-27.31zm0.39-6.99c-1.36 0-2.46-1.04-2.46-2.34 0-1.29 1.1-2.33 2.46-2.33 1.37 0 2.47 1.04 2.47 2.33 0 1.3-1.1 2.34-2.47 2.34zm0-3.43c-1.02 0-1.22 0.42-1.22 1.09 0 0.68 0.2 1.1 1.22 1.1 1.02 0 1.23-0.42 1.23-1.1 0-0.67-0.21-1.09-1.23-1.09z"/>
					</g>
					<g id="&lt;Group&gt;">
						<path id="&lt;Compound Path&gt;" fill-rule="evenodd" class="s0" d="m1304.74-133.95v28.61h-2.04v-7.12q-1.78 3.63-5.34 5.72-3.56 2.1-7.63 2.1-6.23 0-10.68-4.41-4.45-4.42-4.45-10.59 0-6.17 4.45-10.59 4.45-4.42 10.68-4.42 4.07 0 7.79 2.16 3.72 2.17 5.18 5.73v-7.19zm-28.1 14.37q0 5.34 3.91 9.25 3.91 3.91 9.28 3.91 5.38 0 9.19-3.91 3.81-3.91 3.81-9.28 0.01-5.37-3.84-9.31-3.85-3.95-9.19-3.95-5.34 0-9.25 3.98-3.91 3.97-3.91 9.31z"/>
						<path id="&lt;Compound Path&gt;" fill-rule="evenodd" class="s0" d="m1289.73-104.02c-4.3 0-8.05-1.54-11.12-4.59-3.07-3.06-4.63-6.77-4.63-11.03 0-4.26 1.56-7.97 4.63-11.03 3.08-3.05 6.82-4.6 11.12-4.6 2.81 0 5.54 0.76 8.1 2.25q2.68 1.55 4.25 3.83v-5.38h3.28v29.85h-3.28v-5.49q-1.72 2.43-4.4 4.01c-2.46 1.45-5.14 2.18-7.95 2.18zm0-30.01c-3.96 0-7.41 1.43-10.24 4.24-2.84 2.81-4.27 6.23-4.27 10.15 0 3.92 1.43 7.33 4.27 10.14 2.83 2.82 6.27 4.24 10.24 4.24 2.59 0 5.05-0.67 7.32-2.01 2.25-1.33 3.97-3.17 5.1-5.46l1.17-2.39v9.16h0.8v-27.37h-0.8v9.7l-1.19-2.9c-0.92-2.23-2.58-4.06-4.92-5.42-2.37-1.38-4.89-2.08-7.48-2.08zm0.1 28.23c-3.74 0-7.01-1.37-9.73-4.09-2.71-2.71-4.09-5.98-4.09-9.69 0-3.71 1.38-6.99 4.09-9.75 2.72-2.76 5.98-4.16 9.7-4.16 3.71 0 6.95 1.39 9.63 4.13 2.66 2.74 4.02 6.02 4.02 9.75 0 3.73-1.34 7-3.99 9.72-2.66 2.72-5.9 4.09-9.63 4.09zm-0.03-26.45c-3.37 0-6.34 1.28-8.82 3.79-2.47 2.52-3.73 5.51-3.73 8.88 0 3.37 1.26 6.34 3.73 8.82 2.48 2.47 5.45 3.72 8.85 3.72 3.39 0 6.33-1.25 8.74-3.72 2.42-2.47 3.64-5.45 3.64-8.85 0-3.4-1.24-6.39-3.67-8.88-2.47-2.53-5.33-3.76-8.74-3.76z"/>
					</g>
					<g id="&lt;Group&gt;">
						<path id="&lt;Compound Path&gt;" class="s0" d="m1314.21-140.88c-1.02 0-1.85-0.77-1.85-1.72 0-0.95 0.83-1.71 1.85-1.71 1.02 0 1.84 0.76 1.84 1.71 0 0.95-0.82 1.72-1.84 1.72zm1.02 6.99v28.55h-2.04v-28.55z"/>
						<path id="&lt;Compound Path&gt;" fill-rule="evenodd" class="s0" d="m1315.85-134.51v29.79h-3.28v-29.79zm-2.03 1.24v27.31h0.79v-27.31zm0.4-6.99c-1.36 0-2.46-1.04-2.46-2.34 0-1.29 1.1-2.33 2.46-2.33 1.36 0 2.46 1.04 2.46 2.33 0 1.3-1.1 2.34-2.46 2.34zm0-3.43c-1.02 0-1.23 0.42-1.23 1.09 0 0.68 0.21 1.1 1.23 1.1 1.02 0 1.22-0.42 1.22-1.1 0-0.67-0.2-1.09-1.22-1.09z"/>
					</g>
					<g id="&lt;Group&gt;">
						<path id="&lt;Compound Path&gt;" class="s0" d="m1329.92-132.93q-1.66 0-2.93 1.08-1.27 1.08-1.27 2.67 0 1.59 1.43 2.92 1.43 1.34 3.43 2.45 2.01 1.12 4.04 2.39 2.04 1.27 3.47 3.24 1.43 1.97 1.43 4.51 0 3.76-2.83 6.39-2.83 2.64-6.84 2.64-2.54 0-4.74-1.11-2.19-1.11-3.21-2.96v-3.05q2.42 5.34 7.76 5.34 3.31 0.01 5.56-2.03 2.26-2.03 2.26-4.55 0-2.51-1.43-4.23-1.43-1.71-3.47-2.92-2.03-1.21-4.03-2.39-2-1.17-3.44-2.86-1.43-1.68-1.43-3.94 0-2.25 1.82-3.81 1.81-1.56 4.67-1.56 2.86 0 4.9 2.22v2.61q-2.04-3.05-5.15-3.05z"/>
						<path id="&lt;Compound Path&gt;" fill-rule="evenodd" class="s0" d="m1329.85-104.02q-2.68 0-5.02-1.18-2.36-1.2-3.47-3.21l-0.08-0.3v-5.92l1.19 2.62c1.51 3.35 3.87 4.97 7.19 4.97 2.07 0 3.75-0.61 5.15-1.87 1.38-1.25 2.05-2.58 2.05-4.09 0-1.53-0.42-2.79-1.28-3.83q-1.36-1.63-3.31-2.79-2.03-1.2-4.04-2.38-2.09-1.23-3.59-2.99-1.57-1.87-1.58-4.35 0.01-2.53 2.03-4.28 2-1.71 5.08-1.71 3.13 0 5.35 2.43l0.17 0.17v4.9l-1.14-1.7c-1.25-1.87-2.76-2.78-4.63-2.78q-1.43-0.01-2.53 0.93-1.06 0.89-1.05 2.2-0.01 1.32 1.23 2.47 1.38 1.28 3.31 2.36 2.01 1.12 4.07 2.4 2.13 1.34 3.64 3.41 1.54 2.13 1.55 4.87c0 2.67-1.02 4.98-3.03 6.85-1.99 1.86-4.44 2.8-7.26 2.8zm-7.33-4.85q0.94 1.58 2.88 2.57 2.06 1.04 4.45 1.04c2.53 0 4.63-0.8 6.41-2.47 1.78-1.65 2.64-3.59 2.64-5.94 0-1.57-0.43-2.93-1.31-4.15q-1.37-1.87-3.3-3.08-2.03-1.27-4.01-2.36-2.07-1.16-3.56-2.54-1.62-1.52-1.62-3.38 0-1.88 1.49-3.14 1.44-1.23 3.33-1.23 2.61 0 4.53 1.93v-0.62c-1.21-1.25-2.62-1.85-4.28-1.85q-2.63 0-4.27 1.41c-1.07 0.92-1.6 2.02-1.6 3.34 0 1.37 0.42 2.53 1.29 3.54q1.36 1.61 3.27 2.73 2.01 1.18 4.04 2.39 2.14 1.27 3.63 3.06 1.57 1.89 1.57 4.62 0 2.79-2.46 5.01-2.43 2.19-5.98 2.19-4.56 0-7.14-3.62z"/>
					</g>
				</g>
			</g>
		</g>
		<g id="&lt;Group&gt;">
			<g id="&lt;Group&gt;">
				<g id="&lt;Group&gt;">
					<g id="&lt;Group&gt;">
						<path id="&lt;Path&gt;" class="s4" d="m490.82 373.96h-61.56v-301.39l61.56 44.12z"/>
					</g>
					<g id="&lt;Group&gt;">
						<path id="&lt;Path&gt;" class="s4" d="m429.26 373.96h-61.56v-301.39h61.56z"/>
					</g>
					<g id="&lt;Group&gt;">
						<path id="&lt;Path&gt;" class="s4" d="m418.49 373.96h-50.79v-283.82h50.79z"/>
					</g>
				</g>
				<g id="&lt;Group&gt;">
					<g id="&lt;Group&gt;">
						<path id="&lt;Path&gt;" class="s4" d="m258.94 373.96h-61.56v-354.38l61.56 44.18z"/>
					</g>
					<g id="&lt;Group&gt;">
						<path id="&lt;Path&gt;" class="s4" d="m151.14 368l2.2 5.95h-17.51v-37.77c2.56 0.94 4.63 2.98 5.62 5.62z"/>
						<path id="&lt;Path&gt;" class="s4" d="m197.38 19.57v354.38h-8.41l-2.77-5.95-50.37-107.89v-240.54z"/>
					</g>
					<g id="&lt;Group&gt;">
						<path id="&lt;Path&gt;" class="s4" d="m141.45 341.8l9.69 26.2h-15.31v-31.82c2.56 0.94 4.63 2.98 5.62 5.62z"/>
						<path id="&lt;Path&gt;" class="s4" d="m186.62 30.62v337.38h-0.42l-50.37-107.89v-229.49z"/>
					</g>
				</g>
				<g id="&lt;Group&gt;">
					<g id="&lt;Group&gt;">
						<path id="&lt;Path&gt;" class="s4" d="m392.58 373.96h-72.08v-266.25l72.08 51.65z"/>
					</g>
					<g id="&lt;Group&gt;">
						<path id="&lt;Path&gt;" class="s4" d="m320.5 373.96h-61.56v-266.25h61.56z"/>
					</g>
					<g id="&lt;Group&gt;">
						<path id="&lt;Path&gt;" class="s4" d="m308.71 373.96h-50.79v-250.48h50.79z"/>
					</g>
				</g>
				<g id="&lt;Group&gt;">
					<path id="&lt;Path&gt;" class="s4" d="m258.94 62.83l-61.56 36.8"/>
					<path id="&lt;Path&gt;" class="s4" d="m258.89 67.6l-61.51 36.77"/>
					<path id="&lt;Path&gt;" class="s4" d="m258.85 72.36l-61.47 36.75"/>
					<path id="&lt;Path&gt;" class="s4" d="m258.8 77.13l-61.42 36.73"/>
					<path id="&lt;Path&gt;" class="s4" d="m258.75 81.9l-61.37 36.7"/>
					<path id="&lt;Path&gt;" class="s4" d="m258.7 86.67l-61.32 36.67"/>
					<path id="&lt;Path&gt;" class="s4" d="m258.65 91.44l-61.27 36.64"/>
					<path id="&lt;Path&gt;" class="s4" d="m258.6 96.21l-61.22 36.61"/>
					<path id="&lt;Path&gt;" class="s4" d="m258.55 100.98l-61.17 36.58"/>
					<path id="&lt;Path&gt;" class="s4" d="m258.5 105.75l-61.12 36.55"/>
					<path id="&lt;Path&gt;" class="s4" d="m258.46 110.52l-61.08 36.52"/>
					<path id="&lt;Path&gt;" class="s4" d="m258.41 115.29l-61.03 36.49"/>
					<path id="&lt;Path&gt;" class="s4" d="m258.36 120.06l-60.98 36.46"/>
					<path id="&lt;Path&gt;" class="s4" d="m258.31 124.83l-60.93 36.43"/>
					<path id="&lt;Path&gt;" class="s4" d="m258.26 129.6l-60.88 36.4"/>
					<path id="&lt;Path&gt;" class="s4" d="m258.21 134.37l-60.83 36.37"/>
					<path id="&lt;Path&gt;" class="s4" d="m258.16 139.14l-60.78 36.34"/>
					<path id="&lt;Path&gt;" class="s4" d="m258.11 143.91l-60.73 36.31"/>
					<path id="&lt;Path&gt;" class="s4" d="m258.06 148.68l-60.68 36.28"/>
					<path id="&lt;Path&gt;" class="s4" d="m258.02 153.45l-60.64 36.25"/>
					<path id="&lt;Path&gt;" class="s4" d="m257.97 158.22l-60.59 36.22"/>
					<path id="&lt;Path&gt;" class="s4" d="m257.92 162.99l-60.54 36.19"/>
				</g>
				<g id="&lt;Group&gt;">
					<path id="&lt;Path&gt;" class="s4" d="m490.82 141.64l-61.56 36.81"/>
					<path id="&lt;Path&gt;" class="s4" d="m490.77 146.41l-61.51 36.78"/>
					<path id="&lt;Path&gt;" class="s4" d="m490.73 151.18l-61.47 36.75"/>
					<path id="&lt;Path&gt;" class="s4" d="m490.68 155.95l-61.42 36.72"/>
					<path id="&lt;Path&gt;" class="s4" d="m490.63 160.72l-61.37 36.69"/>
					<path id="&lt;Path&gt;" class="s4" d="m490.58 165.49l-61.32 36.66"/>
					<path id="&lt;Path&gt;" class="s4" d="m490.53 170.26l-61.27 36.63"/>
					<path id="&lt;Path&gt;" class="s4" d="m490.48 175.02l-61.22 36.61"/>
					<path id="&lt;Path&gt;" class="s4" d="m490.43 179.79l-61.17 36.58"/>
					<path id="&lt;Path&gt;" class="s4" d="m490.38 184.56l-61.12 36.55"/>
					<path id="&lt;Path&gt;" class="s4" d="m490.34 189.33l-61.08 36.52"/>
					<path id="&lt;Path&gt;" class="s4" d="m490.29 194.1l-61.03 36.49"/>
					<path id="&lt;Path&gt;" class="s4" d="m490.24 198.87l-60.98 36.46"/>
					<path id="&lt;Path&gt;" class="s4" d="m490.19 203.64l-60.93 36.43"/>
					<path id="&lt;Path&gt;" class="s4" d="m490.14 208.41l-60.88 36.4"/>
					<path id="&lt;Path&gt;" class="s4" d="m490.09 213.18l-60.83 36.37"/>
					<path id="&lt;Path&gt;" class="s4" d="m490.04 217.95l-60.78 36.34"/>
					<path id="&lt;Path&gt;" class="s4" d="m489.99 222.72l-60.73 36.31"/>
					<path id="&lt;Path&gt;" class="s4" d="m489.94 227.49l-60.68 36.28"/>
					<path id="&lt;Path&gt;" class="s4" d="m489.9 232.26l-60.64 36.25"/>
					<path id="&lt;Path&gt;" class="s4" d="m489.85 237.03l-60.59 36.22"/>
					<path id="&lt;Path&gt;" class="s4" d="m489.8 241.8l-60.54 36.19"/>
				</g>
				<g id="&lt;Group&gt;">
					<path id="&lt;Path&gt;" class="s4" d="m393.03 168.09l-72.53 43.37"/>
					<path id="&lt;Path&gt;" class="s4" d="m392.97 173.71l-72.47 43.33"/>
					<path id="&lt;Path&gt;" class="s4" d="m392.91 179.33l-72.41 43.3"/>
					<path id="&lt;Path&gt;" class="s4" d="m392.85 184.95l-72.35 43.26"/>
					<path id="&lt;Path&gt;" class="s4" d="m392.8 190.57l-72.3 43.22"/>
					<path id="&lt;Path&gt;" class="s4" d="m392.74 196.19l-72.24 43.19"/>
					<path id="&lt;Path&gt;" class="s4" d="m392.68 201.81l-72.18 43.15"/>
					<path id="&lt;Path&gt;" class="s4" d="m392.62 207.43l-72.12 43.12"/>
					<path id="&lt;Path&gt;" class="s4" d="m392.57 213.04l-72.07 43.09"/>
					<path id="&lt;Path&gt;" class="s4" d="m392.51 218.66l-72.01 43.06"/>
					<path id="&lt;Path&gt;" class="s4" d="m392.45 224.28l-71.95 43.02"/>
					<path id="&lt;Path&gt;" class="s4" d="m392.39 229.9l-71.89 42.98"/>
					<path id="&lt;Path&gt;" class="s4" d="m392.34 235.52l-71.84 42.95"/>
					<path id="&lt;Path&gt;" class="s4" d="m392.28 241.14l-71.78 42.91"/>
					<path id="&lt;Path&gt;" class="s4" d="m392.22 246.76l-71.72 42.88"/>
					<path id="&lt;Path&gt;" class="s4" d="m392.16 252.38l-71.66 42.84"/>
					<path id="&lt;Path&gt;" class="s4" d="m392.11 257.99l-71.61 42.82"/>
					<path id="&lt;Path&gt;" class="s4" d="m392.05 263.61l-71.55 42.78"/>
					<path id="&lt;Path&gt;" class="s4" d="m391.99 269.23l-71.49 42.74"/>
					<path id="&lt;Path&gt;" class="s4" d="m391.93 274.85l-71.43 42.71"/>
					<path id="&lt;Path&gt;" class="s4" d="m391.88 280.47l-71.38 42.67"/>
					<path id="&lt;Path&gt;" class="s4" d="m391.82 286.09l-71.32 42.64"/>
				</g>
				<path id="&lt;Path&gt;" class="s4" d="m252.32 373.95h-63.35l-2.77-5.95-50.37-107.89-0.75-1.62-36.16 77.43 33.54-0.34c1.18 0 2.33 0.21 3.37 0.6 2.56 0.94 4.63 2.98 5.62 5.62l9.69 26.2 2.2 5.95h-135.5l58.83-111.8 2.24-68.13c0.08-2.4 2.04-4.31 4.44-4.31h31.43l20.3-38.58 0.75 1.43 50.79 96.53 10.76 20.45z"/>
			</g>
			<g id="&lt;Group&gt;">
				<g id="&lt;Group&gt;">
					<path id="&lt;Compound Path&gt;" fill-rule="evenodd" class="s4" d="m621.16 292.41v-7.68c17.81-2.19 20.01-4.93 16.17-15.34-3.56-10.69-9.04-24.39-14.8-41.65h-59.18c-4.39 12.33-8.5 23.02-12.33 34.25-6.03 17.81-2.19 20 20.28 22.74v7.68h-63.3v-7.68c17.26-2.19 21.65-4.11 31.24-28.77l56.72-143.85 8.76-1.64c17.27 46.85 36.17 98.64 53.44 146.04 8.76 23.84 11.23 26.03 30.68 28.22v7.68zm-27.4-146.05c-8.76 23.57-18.08 48.5-26.3 70.15h51.24z"/>
					<path id="&lt;Compound Path&gt;" class="s4" d="m822 157.32c-2.47-8.77-5.75-17.81-8.77-22.74-4.38-7.4-7.12-9.32-22.19-9.32h-27.4v133.44c0 21.38 2.19 24.39 28.22 26.03v7.68h-79.74v-7.68c25.49-1.64 27.68-4.38 27.68-26.03v-133.44h-24.94c-15.07 0-19.45 1.65-24.11 9.87-3.29 5.48-5.48 12.05-9.04 22.19h-8.22c1.64-16.71 3.29-33.98 4.11-49.32h6.3c4.11 6.58 7.12 6.3 14.8 6.3h108.5c7.68 0 9.87-1.09 13.98-6.3h6.57c0 12.88 1.1 32.61 2.47 48.5z"/>
					<path id="&lt;Compound Path&gt;" fill-rule="evenodd" class="s4" d="m929.95 292.41v-7.68c17.81-2.19 20-4.93 16.16-15.34-3.56-10.69-9.04-24.39-14.79-41.65h-59.19c-4.38 12.33-8.49 23.02-12.33 34.25-6.02 17.81-2.19 20 20.28 22.74v7.68h-63.3v-7.68c17.27-2.19 21.65-4.11 31.24-28.77l56.72-143.85 8.77-1.64c17.26 46.85 36.17 98.64 53.43 146.04 8.77 23.84 11.23 26.03 30.69 28.22v7.68zm-27.4-146.05c-8.77 23.57-18.09 48.5-26.31 70.15h51.24z"/>
					<path id="&lt;Compound Path&gt;" class="s4" d="m1146.12 246.92c-1.64 8.5-9.86 36.99-12.6 45.49h-127.41v-7.68c24.93-2.46 27.12-3.83 27.12-27.12v-108.78c0-23.29-2.74-24.66-24.66-26.85v-7.68h73.44v7.68c-21.92 2.19-24.94 3.28-24.94 26.85v111.52c0 16.71 2.19 20.55 17.81 20.82 0.28 0 20 0.28 21.65 0.28 13.97 0 18.08-1.65 24.38-8.5 6.86-7.12 12.61-18.08 16.72-28.22z"/>
					<path id="&lt;Compound Path&gt;" fill-rule="evenodd" class="s4" d="m1273.52 292.41v-7.68c17.81-2.19 20.01-4.93 16.17-15.34-3.56-10.69-9.04-24.39-14.8-41.65h-59.18c-4.38 12.33-8.5 23.02-12.33 34.25-6.03 17.81-2.19 20 20.27 22.74v7.68h-63.29v-7.68c17.26-2.19 21.65-4.11 31.24-28.77l56.72-143.85 8.76-1.64c17.27 46.85 36.17 98.64 53.43 146.04 8.77 23.84 11.24 26.03 30.69 28.22v7.68zm-27.4-146.05c-8.77 23.57-18.08 48.5-26.3 70.15h51.24z"/>
				</g>
				<g id="&lt;Group&gt;">
					<path id="&lt;Path&gt;" class="s5" d="m532.12 343.46q-2-1.8-4.45-3.41-2.46-1.6-4.86-2.97-2.4-1.39-4.28-2.76c-2.82-2.1-4.24-4.42-4.24-6.89v-0.33c0-2.1 0.65-3.7 2-4.9 1.38-1.21 3-1.8 4.96-1.8q2.97 0 5.36 1.45 2.39 1.46 3.8 4.01l1.17 2.15v-5.95l-0.13-0.17c-2.43-3.06-5.75-4.61-9.88-4.61-2.97 0-5.5 0.85-7.54 2.52-2.07 1.71-3.12 4.19-3.12 7.37v0.45q0 3.09 1.78 5.69 1.75 2.55 4.36 4.22 2.51 1.62 5.47 3.48 2.95 1.86 5.45 3.56 2.39 1.63 4 4.19 1.57 2.51 1.58 5.55v0.38c0 3.27-1.09 5.81-3.33 7.76-2.23 1.95-4.9 2.93-7.94 2.93-3.08 0-5.67-0.73-7.72-2.16-2.06-1.45-3.64-3.37-4.7-5.7l-1.2-2.63v6.55l0.11 0.16c3.06 4.58 7.43 6.9 12.99 6.9 4.21 0 7.8-1.26 10.67-3.75 2.9-2.52 4.36-5.94 4.36-10.19v-0.64q0-3.23-1.31-5.93-1.31-2.68-3.36-4.53z"/>
					<path id="&lt;Compound Path&gt;" fill-rule="evenodd" class="s5" d="m569.19 342.69l-20.11 19.86q3.7 2.76 7.09 2.77 3.68 0 6.6-1.68c1.94-1.13 3.57-2.65 4.84-4.54l1.14-1.7v5.57l-0.16 0.18c-3.15 3.47-7.03 5.23-11.52 5.23h-0.58c-4.23 0-7.96-1.61-11.09-4.79-3.13-3.17-4.72-6.92-4.72-11.15 0-4.22 1.58-7.94 4.69-11.02 3.11-3.09 7-4.65 11.57-4.65 4.58 0 8.56 1.84 11.85 5.48zm-21.42 0.9c-2.51 2.5-3.78 5.41-3.78 8.65 0 3.04 0.95 5.75 2.83 8.08l17.74-17.62c-2.41-1.91-5.15-2.88-8.17-2.88-3.22 0-6.12 1.26-8.62 3.77z"/>
					<path id="&lt;Path&gt;" class="s5" d="m585.56 336.7q-3.19 0.01-5.78 1.5-1.58 0.91-2.67 2.15v-2.94h-3.31v30.19h3.31v-19.92c0-2.11 0.8-3.92 2.42-5.53 1.63-1.61 3.45-2.39 5.57-2.39 2.12 0 4.02 0.86 5.8 2.64l1.07 1.07v-4.4l-0.25-0.18q-2.94-2.18-6.16-2.19z"/>
					<path id="&lt;Path&gt;" class="s5" d="m609.03 361.99l-11.83-24.58h-3.64l15.28 31.85 15.2-31.85h-3.25z"/>
					<path id="&lt;Path&gt;" fill-rule="evenodd" class="s5" d="m630.38 331.65c-1.38 0-2.49-1.05-2.49-2.36 0-1.31 1.11-2.36 2.49-2.36 1.38 0 2.49 1.05 2.49 2.36 0 1.31-1.11 2.36-2.49 2.36z"/>
					<path id="&lt;Path&gt;" fill-rule="evenodd" class="s5" d="m632.03 337.47v30.13h-3.31v-30.13z"/>
					<path id="&lt;Path&gt;" class="s5" d="m654.56 336.83c-4.53 0-8.4 1.57-11.5 4.65-3.11 3.09-4.69 6.68-4.69 10.67 0 3.97 1.25 7.51 3.71 10.53 2.35 2.88 5.3 4.69 8.77 5.4v4.35h2.87q1.23-0.01 2.01 0.75 0.78 0.75 0.77 1.83 0.01 1.09-0.77 1.84-0.78 0.76-2.01 0.75h-2.87v2.86h2.87q2.38 0 3.98-1.56 1.6-1.57 1.6-3.76v-0.25q0-2.2-1.63-3.8-1.63-1.58-3.95-1.59l-0.01-1.06q0.15 0 0.34 0h0.57c4.58 0 8.48-1.74 11.59-5.16l0.17-0.18v-5.68l-1.15 1.75c-1.27 1.92-2.9 3.46-4.84 4.56q-2.91 1.65-6.09 1.65c-3.37 0-6.35-1.26-8.85-3.77-2.5-2.5-3.77-5.52-3.77-8.97 0-3.46 1.27-6.48 3.77-8.98 2.5-2.51 5.48-3.77 8.85-3.77q3.18 0 6.09 1.65 2.93 1.67 4.84 4.5l1.15 1.7v-5.58l-0.17-0.18c-3.2-3.41-7.12-5.15-11.65-5.15z"/>
					<path id="&lt;Compound Path&gt;" fill-rule="evenodd" class="s5" d="m696.83 341.36c3.09 3.08 4.66 6.8 4.66 11.05 0 4.24-1.53 7.99-4.55 11.14-3.02 3.16-6.75 4.76-11.06 4.76h-0.58c-4.28 0-8-1.61-11.06-4.79-3.07-3.17-4.62-6.92-4.62-11.14 0-4.23 1.58-7.94 4.69-11.03 3.11-3.08 6.9-4.65 11.28-4.65 4.37 0 8.15 1.57 11.24 4.66zm-2.37 2.2c-2.45-2.52-5.43-3.8-8.84-3.8-3.41 0-6.41 1.29-8.91 3.83-2.51 2.55-3.78 5.57-3.78 8.98 0 3.41 1.27 6.41 3.78 8.92 2.5 2.5 5.51 3.77 8.94 3.77 3.43 0 6.41-1.27 8.85-3.77 2.44-2.51 3.68-5.52 3.68-8.95 0-3.44-1.25-6.46-3.72-8.98z"/>
					<path id="&lt;Path&gt;" class="s5" d="m718.36 350.17q-2.05-1.28-4.11-2.42-1.95-1.09-3.35-2.39-1.25-1.16-1.25-2.5 0-1.32 1.07-2.22 1.11-0.95 2.55-0.95c1.9 0 3.43 0.92 4.69 2.81l1.15 1.73v-4.96l-0.17-0.18q-2.25-2.45-5.41-2.45-3.12 0-5.14 1.72-2.04 1.77-2.05 4.34 0.01 2.51 1.6 4.39 1.52 1.79 3.63 3.03 2.03 1.19 4.08 2.41 1.97 1.17 3.35 2.82c0.87 1.05 1.3 2.32 1.3 3.88 0 1.52-0.68 2.87-2.08 4.13-1.41 1.27-3.12 1.9-5.21 1.9-3.36 0-5.74-1.65-7.27-5.04l-1.2-2.64v5.99l0.08 0.3q1.12 2.03 3.51 3.25 2.36 1.19 5.08 1.19c2.85 0 5.32-0.95 7.34-2.84 2.03-1.89 3.06-4.22 3.06-6.92q0-2.77-1.57-4.93-1.52-2.09-3.68-3.45z"/>
					<path id="&lt;Compound Path&gt;" fill-rule="evenodd" class="s5" d="m756.82 350.08l16.62 17.52h-4.49l-13.7-14.36v14.36h-3.31v-49.48h3.39c4.31 0 8.14 1.6 11.4 4.77 3.26 3.18 4.92 6.96 4.92 11.26 0 4.29-1.69 8.07-5.02 11.22-3.04 2.88-6.33 4.46-9.81 4.71zm-1.04-3.09c3.28 0 6.23-1.28 8.75-3.8 2.53-2.53 3.81-5.56 3.81-9.01 0-3.45-1.32-6.51-3.93-9.07-2.61-2.57-5.62-3.88-8.95-3.88h-0.21v25.76z"/>
					<path id="&lt;Compound Path&gt;" fill-rule="evenodd" class="s5" d="m804.37 342.69l-20.11 19.86q3.7 2.76 7.08 2.77 3.69 0 6.6-1.68c1.95-1.13 3.57-2.65 4.84-4.54l1.15-1.7v5.57l-0.16 0.18c-3.16 3.47-7.03 5.23-11.53 5.23h-0.57c-4.23 0-7.96-1.61-11.09-4.79-3.13-3.17-4.72-6.92-4.72-11.15 0-4.22 1.58-7.94 4.69-11.02 3.11-3.09 7-4.65 11.57-4.65 4.57 0 8.56 1.84 11.84 5.48zm-21.42 0.9c-2.5 2.5-3.77 5.41-3.77 8.65 0 3.04 0.95 5.75 2.82 8.08l17.75-17.62c-2.41-1.91-5.15-2.88-8.17-2.88-3.22 0-6.12 1.26-8.63 3.77z"/>
					<path id="&lt;Path&gt;" class="s5" d="m821 350.17q-2.06-1.28-4.11-2.42-1.96-1.09-3.35-2.39-1.25-1.16-1.25-2.5 0-1.32 1.07-2.22 1.11-0.95 2.55-0.95c1.89 0 3.43 0.92 4.69 2.81l1.15 1.73v-4.96l-0.17-0.18q-2.25-2.45-5.41-2.45-3.13 0-5.14 1.72-2.05 1.77-2.05 4.34 0 2.51 1.6 4.39 1.52 1.79 3.63 3.03 2.02 1.19 4.08 2.41 1.97 1.17 3.34 2.82c0.88 1.05 1.31 2.32 1.31 3.88 0 1.52-0.68 2.87-2.08 4.13-1.42 1.27-3.12 1.9-5.21 1.9-3.36 0-5.74-1.65-7.27-5.04l-1.2-2.64v5.99l0.08 0.3q1.12 2.03 3.51 3.25 2.36 1.19 5.08 1.19c2.85 0 5.32-0.95 7.34-2.84 2.03-1.89 3.06-4.22 3.06-6.92q-0.01-2.77-1.57-4.93-1.52-2.09-3.68-3.45z"/>
					<path id="&lt;Path&gt;" fill-rule="evenodd" class="s5" d="m835.25 337.47v30.13h-3.31v-30.13z"/>
					<path id="&lt;Path&gt;" fill-rule="evenodd" class="s5" d="m833.59 331.65c-1.37 0-2.49-1.05-2.49-2.36 0-1.31 1.12-2.36 2.49-2.36 1.38 0 2.5 1.05 2.5 2.36 0 1.31-1.12 2.36-2.5 2.36z"/>
					<path id="&lt;Compound Path&gt;" fill-rule="evenodd" class="s5" d="m869.37 318.12h3.31v49.48h-3.31v-5.51q-1.85 2.44-4.66 4.05c-2.53 1.44-5.17 2.17-7.84 2.17-4.39 0-8.19-1.56-11.28-4.65-3.08-3.09-4.65-6.84-4.65-11.15 0-4.31 1.57-8.07 4.65-11.15 3.09-3.09 6.89-4.66 11.28-4.66 2.76 0 5.45 0.74 8 2.21q2.77 1.59 4.5 3.95zm-21.4 25.44c-2.47 2.53-3.72 5.55-3.72 8.99 0 3.43 1.24 6.44 3.68 8.95 2.44 2.5 5.42 3.76 8.85 3.76 3.43 0 6.44-1.26 8.94-3.77 2.51-2.5 3.78-5.5 3.78-8.91 0-3.41-1.27-6.44-3.78-8.98-2.5-2.55-5.5-3.83-8.91-3.83-3.41 0-6.39 1.27-8.84 3.79z"/>
					<path id="&lt;Compound Path&gt;" fill-rule="evenodd" class="s5" d="m906.36 342.69l-20.11 19.86q3.7 2.76 7.09 2.77 3.68 0 6.6-1.68c1.94-1.13 3.57-2.65 4.84-4.54l1.14-1.7v5.57l-0.16 0.18c-3.15 3.47-7.03 5.23-11.52 5.23h-0.58c-4.23 0-7.96-1.61-11.09-4.79-3.13-3.17-4.72-6.92-4.72-11.15 0-4.22 1.58-7.94 4.69-11.02 3.11-3.09 7-4.65 11.57-4.65 4.58 0 8.56 1.84 11.85 5.48zm-21.42 0.9c-2.51 2.5-3.78 5.41-3.78 8.65 0 3.04 0.95 5.75 2.83 8.08l17.74-17.62c-2.41-1.91-5.15-2.88-8.17-2.88-3.22 0-6.12 1.26-8.62 3.77z"/>
					<path id="&lt;Path&gt;" class="s5" d="m924.85 336.7c-4.65 0-8.2 1.66-10.56 4.94v-4.23h-3.32v30.19h3.32v-17.47c0-2.77 1.07-5.22 3.18-7.27 2.12-2.06 4.6-3.1 7.38-3.1 2.8 0 5.12 1.01 7.1 3.08 1.96 2.06 2.95 4.51 2.95 7.29v17.47h3.31v-17.47c0-3.71-1.29-6.91-3.84-9.51-2.56-2.6-5.76-3.92-9.52-3.92z"/>
					<path id="&lt;Path&gt;" class="s5" d="m959.25 336.83c-4.52 0-8.39 1.57-11.5 4.65-3.11 3.09-4.69 6.81-4.69 11.06 0 4.24 1.56 7.99 4.62 11.14 3.06 3.16 6.79 4.76 11.06 4.76h0.58c4.58 0 8.48-1.74 11.59-5.16l0.16-0.18v-5.67l-1.15 1.74q-1.91 2.9-4.84 4.56-2.91 1.65-6.08 1.65c-3.37 0-6.35-1.26-8.85-3.77-2.51-2.5-3.78-5.52-3.78-8.97 0-3.46 1.27-6.48 3.78-8.98 2.5-2.51 5.48-3.77 8.85-3.77q3.17 0 6.08 1.65 2.93 1.67 4.84 4.5l1.15 1.7v-5.58l-0.17-0.18c-3.19-3.41-7.11-5.15-11.65-5.15z"/>
					<path id="&lt;Path&gt;" fill-rule="evenodd" class="s5" d="m977.77 331.65c-1.38 0-2.49-1.05-2.49-2.36 0-1.31 1.11-2.36 2.49-2.36 1.38 0 2.49 1.05 2.49 2.36 0 1.31-1.11 2.36-2.49 2.36z"/>
					<path id="&lt;Path&gt;" fill-rule="evenodd" class="s5" d="m979.43 337.47v30.13h-3.31v-30.13z"/>
					<path id="&lt;Compound Path&gt;" fill-rule="evenodd" class="s5" d="m1013.55 337.41h3.31v30.19h-3.31v-5.55q-1.75 2.45-4.46 4.05c-2.49 1.47-5.19 2.21-8.04 2.21-4.35 0-8.14-1.56-11.24-4.65-3.11-3.09-4.69-6.84-4.69-11.15 0-4.31 1.58-8.07 4.69-11.16 3.11-3.08 6.89-4.65 11.24-4.65 2.85 0 5.6 0.77 8.2 2.27q2.7 1.58 4.3 3.87zm-12.43 2.35c-3.41 0-6.41 1.29-8.91 3.84-2.51 2.54-3.78 5.56-3.78 8.97 0 3.41 1.27 6.41 3.77 8.92 2.51 2.5 5.52 3.77 8.95 3.77 3.43 0 6.41-1.26 8.85-3.77 2.44-2.5 3.67-5.51 3.67-8.95 0-3.43-1.24-6.46-3.71-8.98-2.49-2.56-5.38-3.8-8.84-3.8z"/>
					<path id="&lt;Path&gt;" fill-rule="evenodd" class="s5" d="m1025.31 331.65c-1.38 0-2.49-1.05-2.49-2.36 0-1.31 1.11-2.36 2.49-2.36 1.38 0 2.49 1.05 2.49 2.36 0 1.31-1.11 2.36-2.49 2.36z"/>
					<path id="&lt;Path&gt;" fill-rule="evenodd" class="s5" d="m1026.97 337.47v30.13h-3.31v-30.13z"/>
					<path id="&lt;Path&gt;" class="s5" d="m1046.29 350.17q-2.09-1.3-4.12-2.42-1.95-1.09-3.34-2.39-1.26-1.16-1.25-2.5-0.01-1.32 1.06-2.22 1.11-0.95 2.56-0.95c1.89 0 3.42 0.92 4.68 2.81l1.15 1.72v-4.95l-0.16-0.18q-2.25-2.45-5.42-2.45-3.12 0-5.13 1.72-2.05 1.78-2.05 4.34 0 2.51 1.59 4.39 1.52 1.79 3.63 3.03 2.03 1.19 4.08 2.41 1.98 1.18 3.35 2.82c0.87 1.06 1.3 2.32 1.3 3.88 0 1.52-0.68 2.87-2.08 4.13-1.41 1.28-3.11 1.9-5.2 1.9-3.36 0-5.74-1.65-7.28-5.04l-1.19-2.65v6l0.07 0.3q1.13 2.03 3.52 3.25 2.36 1.19 5.07 1.19c2.85 0 5.33-0.95 7.34-2.84 2.03-1.89 3.06-4.22 3.06-6.92q0-2.77-1.56-4.93-1.53-2.1-3.68-3.45z"/>
					<path id="&lt;Path&gt;" class="s5" d="m1100.77 338.02h8.93v13.72c0 3.75-1.36 6.99-4.05 9.64-2.7 2.66-5.95 4-9.66 4-3.71 0-6.96-1.35-9.66-4.03-2.69-2.67-4.05-5.89-4.05-9.58 0-3.69 1.37-6.94 4.09-9.66 2.72-2.71 5.95-4.09 9.62-4.09h1.14v-3.06h-1.53c-1.99 0-3.66-0.7-5.11-2.16-1.46-1.45-2.17-3.11-2.17-5.05 0-1.95 0.71-3.6 2.17-5.06q2.16-2.16 4.7-2.16 2.6 0 4.57 1.31 1.96 1.31 2.79 3.26l1.21 2.83v-6.72l-0.16-0.18c-2.09-2.36-4.71-3.56-7.8-3.56-3.07 0-5.67 1.01-7.71 3.01-2.04 2-3.08 4.47-3.08 7.33q0 2.82 1.64 5.36 1.23 1.88 2.95 3.05c-2.91 1.15-5.35 3.04-7.26 5.62-2.2 2.97-3.31 6.28-3.31 9.83 0 4.57 1.67 8.56 4.97 11.86 3.3 3.3 7.34 4.97 11.99 4.97 3.28 0 6.37-0.92 9.18-2.73q2.91-1.88 4.53-4.38v6.21h3.19v-29.58h8.94v-3.06h-21.06z"/>
					<path id="&lt;Compound Path&gt;" fill-rule="evenodd" class="s5" d="m1163.37 322.89c3.24 3.18 4.89 6.98 4.89 11.29 0 4.32-1.7 8.09-5.06 11.2-3.31 3.07-7.02 4.64-11.02 4.67v17.55h-3.38v-49.48h2.75c4.61 0 8.59 1.6 11.82 4.77zm-2.32 20.3c2.54-2.53 3.83-5.56 3.83-9.01 0-3.46-1.31-6.51-3.9-9.07-2.56-2.54-5.52-3.85-8.8-3.88v25.76c3.37-0.03 6.35-1.3 8.87-3.8z"/>
					<path id="&lt;Path&gt;" class="s5" d="m1184.74 336.7q-3.19 0.01-5.78 1.5-1.58 0.91-2.66 2.15v-2.94h-3.31v30.19h3.31v-19.92c0-2.11 0.79-3.92 2.42-5.53 1.63-1.61 3.45-2.39 5.57-2.39 2.12 0 4.01 0.86 5.79 2.64l1.07 1.07v-4.4l-0.25-0.18q-2.94-2.18-6.16-2.19z"/>
					<path id="&lt;Compound Path&gt;" fill-rule="evenodd" class="s5" d="m1222.58 342.69l-20.11 19.86q3.71 2.76 7.09 2.77c2.45 0 4.67-0.57 6.6-1.68q2.92-1.7 4.84-4.54l1.15-1.7v5.57l-0.16 0.18c-3.16 3.47-7.03 5.23-11.53 5.23h-0.58c-4.22 0-7.95-1.61-11.09-4.79-3.12-3.17-4.71-6.92-4.71-11.15 0-4.22 1.58-7.93 4.69-11.02 3.1-3.09 7-4.65 11.56-4.65 4.58 0 8.57 1.84 11.85 5.48zm-21.42 0.9c-2.5 2.5-3.77 5.41-3.77 8.65 0 3.04 0.95 5.75 2.82 8.08l17.74-17.62c-2.4-1.91-5.15-2.88-8.16-2.88-3.23 0-6.13 1.26-8.63 3.77z"/>
					<path id="&lt;Compound Path&gt;" fill-rule="evenodd" class="s5" d="m1254.02 318.12h3.31v49.48h-3.31v-5.51q-1.85 2.44-4.66 4.05c-2.53 1.44-5.17 2.17-7.84 2.17-4.4 0-8.19-1.56-11.28-4.65-3.09-3.09-4.65-6.84-4.65-11.15 0-4.31 1.56-8.07 4.65-11.15 3.09-3.09 6.89-4.66 11.28-4.66 2.76 0 5.45 0.74 8 2.21q2.76 1.59 4.5 3.96zm-21.41 25.44c-2.46 2.52-3.71 5.54-3.71 8.98 0 3.43 1.24 6.45 3.68 8.95 2.44 2.5 5.42 3.77 8.85 3.77 3.43 0 6.44-1.27 8.94-3.78 2.5-2.5 3.77-5.5 3.77-8.91 0-3.41-1.27-6.43-3.77-8.98-2.5-2.54-5.5-3.83-8.91-3.83-3.41 0-6.39 1.28-8.85 3.8z"/>
					<path id="&lt;Path&gt;" fill-rule="evenodd" class="s5" d="m1267.94 337.47v30.13h-3.31v-30.13z"/>
					<path id="&lt;Path&gt;" fill-rule="evenodd" class="s5" d="m1266.28 331.65c-1.38 0-2.49-1.05-2.49-2.36 0-1.31 1.11-2.36 2.49-2.36 1.38 0 2.49 1.05 2.49 2.36 0 1.31-1.11 2.36-2.49 2.36z"/>
					<path id="&lt;Compound Path&gt;" fill-rule="evenodd" class="s5" d="m1302.05 337.41h3.32v30.19h-3.32v-5.55q-1.74 2.45-4.45 4.05c-2.49 1.47-5.19 2.21-8.04 2.21-4.35 0-8.14-1.56-11.24-4.65-3.11-3.09-4.69-6.84-4.69-11.15 0-4.31 1.58-8.07 4.69-11.16 3.1-3.08 6.89-4.65 11.24-4.65 2.84 0 5.6 0.77 8.2 2.27q2.7 1.58 4.29 3.87zm-12.42 2.35c-3.41 0-6.41 1.29-8.92 3.84-2.5 2.54-3.77 5.56-3.77 8.97 0 3.41 1.27 6.41 3.77 8.92 2.51 2.5 5.52 3.77 8.95 3.77 3.43 0 6.4-1.26 8.84-3.77 2.44-2.5 3.68-5.51 3.68-8.95 0-3.43-1.25-6.46-3.71-8.98-2.49-2.56-5.39-3.8-8.84-3.8z"/>
					<path id="&lt;Path&gt;" fill-rule="evenodd" class="s5" d="m1315.98 337.47v30.13h-3.32v-30.13z"/>
					<path id="&lt;Path&gt;" fill-rule="evenodd" class="s5" d="m1314.32 331.65c-1.38 0-2.49-1.05-2.49-2.36 0-1.31 1.11-2.36 2.49-2.36 1.38 0 2.49 1.05 2.49 2.36 0 1.31-1.11 2.36-2.49 2.36z"/>
					<path id="&lt;Path&gt;" class="s5" d="m1338.98 353.62q-1.53-2.1-3.68-3.45-2.09-1.3-4.12-2.42-1.96-1.09-3.35-2.39-1.25-1.16-1.24-2.5-0.01-1.32 1.06-2.22 1.11-0.95 2.56-0.95c1.89 0 3.42 0.92 4.68 2.81l1.15 1.72v-4.95l-0.16-0.18q-2.26-2.45-5.42-2.45-3.12 0-5.13 1.72-2.05 1.78-2.06 4.34 0.01 2.51 1.6 4.39 1.52 1.79 3.63 3.03 2.03 1.19 4.08 2.41 1.98 1.18 3.35 2.82c0.87 1.06 1.3 2.32 1.3 3.88 0 1.52-0.68 2.87-2.08 4.13-1.41 1.28-3.11 1.9-5.2 1.9-3.36 0-5.75-1.65-7.28-5.04l-1.2-2.65v6l0.08 0.3q1.13 2.03 3.51 3.25 2.36 1.19 5.08 1.19c2.85 0 5.32-0.95 7.34-2.84 2.03-1.89 3.06-4.22 3.06-6.92q0-2.77-1.56-4.93z"/>
				</g>
			</g>
		</g>
		<g id="&lt;Group&gt;">
			<g id="&lt;Group&gt;">
				<g id="&lt;Group&gt;">
					<g id="&lt;Group&gt;">
					</g>
					<g id="&lt;Group&gt;">
					</g>
					<g id="&lt;Group&gt;">
					</g>
				</g>
				<g id="&lt;Group&gt;">
					<g id="&lt;Group&gt;">
					</g>
					<g id="&lt;Group&gt;">
					</g>
					<g id="&lt;Group&gt;">
					</g>
				</g>
				<g id="&lt;Group&gt;">
					<g id="&lt;Group&gt;">
					</g>
					<g id="&lt;Group&gt;">
					</g>
					<g id="&lt;Group&gt;">
					</g>
				</g>
				<g id="&lt;Group&gt;">
				</g>
				<g id="&lt;Group&gt;">
				</g>
				<g id="&lt;Group&gt;">
				</g>
			</g>
			<g id="&lt;Group&gt;">
				<g id="&lt;Group&gt;">
				</g>
				<g id="&lt;Group&gt;">
				</g>
			</g>
		</g>
	</g>
</svg>